<svg width="37" height="36" viewBox="0 0 37 36" fill="none" xmlns="http://www.w3.org/2000/svg">
<path d="M37 17.2401C37 27.6014 28.7173 36 18.501 36C8.28476 36 0 27.6014 0 17.2401C0 9.79339 4.27842 3.35967 10.48 0.331299V6.1248C7.10923 8.6309 4.92018 12.6765 4.92018 17.2401C4.92018 24.8468 11.0013 31.0131 18.501 31.0131C26.0007 31.0131 32.0819 24.8468 32.0819 17.2401C32.0819 12.6765 29.8928 8.6309 26.522 6.1248V0.331299C32.7216 3.35967 37 9.79339 37 17.2401Z" fill="#808285"/>
<path d="M19.3204 16.8842C19.0836 17.0505 18.8302 17.2001 18.5706 17.3306C18.4481 17.3917 18.3006 17.3412 18.2404 17.2169C18.1802 17.0927 18.23 16.9431 18.3525 16.8821C18.5914 16.762 18.824 16.623 19.0421 16.4714C19.2622 16.3177 19.4741 16.1471 19.6693 15.9618C19.688 15.9449 19.7067 15.9323 19.7274 15.9217C19.823 15.8733 19.9414 15.8923 20.0182 15.9765C20.1117 16.0776 20.1054 16.2355 20.0058 16.3303C19.7918 16.5304 19.5634 16.7178 19.3225 16.8842H19.3204Z" fill="#2AB678"/>
<path d="M19.4611 19.1586C19.5837 19.0975 19.7311 19.1481 19.7914 19.2723C19.8516 19.3966 19.8017 19.5461 19.6792 19.6072C18.8484 20.0263 17.8702 19.9905 17.0665 19.5145C16.7155 19.306 16.4205 19.0302 16.1921 18.6911C16.1152 18.5774 16.1422 18.4215 16.2544 18.3436C16.2648 18.3373 16.2752 18.331 16.2855 18.3247C16.3935 18.2699 16.5265 18.3036 16.5971 18.4068C16.7861 18.6848 17.027 18.9101 17.3136 19.0807C17.9741 19.4724 18.7758 19.4998 19.4591 19.1565L19.4611 19.1586Z" fill="#2AB678"/>
<path d="M17.4574 15.0562C16.9984 15.2857 16.6411 15.6564 16.4231 16.126C16.3088 16.3703 16.2382 16.6315 16.2133 16.901C16.1905 17.1579 16.2091 17.4128 16.2694 17.6634C16.3026 17.7982 16.2216 17.9329 16.0908 17.9666C15.9578 18.0003 15.8249 17.9182 15.7917 17.7855C15.7169 17.4823 15.6941 17.1685 15.7231 16.8568C15.7522 16.5283 15.8395 16.2124 15.9786 15.9133C16.1074 15.6353 16.2798 15.3847 16.4895 15.1657C16.7055 14.9383 16.9589 14.7529 17.2393 14.6118C17.3618 14.5508 17.5093 14.6013 17.5695 14.7256C17.6297 14.8498 17.5799 14.9993 17.4574 15.0604V15.0562Z" fill="#2AB678"/>
<path d="M20.6027 15.6732C20.5175 15.7806 20.3618 15.7975 20.2558 15.7112C20.1499 15.6248 20.1333 15.4669 20.2184 15.3595C20.3908 15.1425 20.5466 14.9109 20.6858 14.6708C20.7107 14.6266 20.7481 14.595 20.7896 14.5739C20.8623 14.5381 20.9495 14.5381 21.0243 14.5824C21.1427 14.6519 21.1821 14.8056 21.1136 14.9235C20.962 15.1868 20.7917 15.4395 20.6048 15.6732H20.6027Z" fill="#2AB678"/>
<path d="M16.1809 19.5988C16.0812 19.6935 15.9255 19.6872 15.832 19.5861C15.5973 19.3292 15.3979 19.0386 15.2443 18.7227C15.2339 18.7016 15.2256 18.6827 15.2152 18.6637C15.076 18.3647 14.9763 18.0488 14.9223 17.7245C14.8704 17.4212 14.8579 17.1095 14.8849 16.8021C14.9099 16.4988 14.9743 16.1997 15.0719 15.9112C15.1778 15.6017 15.3253 15.3089 15.508 15.0394C15.5329 15.0036 15.5641 14.9762 15.6015 14.9572C15.6783 14.9172 15.7739 14.9214 15.8507 14.9762C15.9629 15.0541 15.9899 15.2099 15.913 15.3237C15.7552 15.5553 15.6285 15.808 15.5371 16.0755C15.4519 16.324 15.3979 16.583 15.3751 16.8442C15.3523 17.1095 15.3626 17.377 15.4083 17.6402C15.4561 17.9203 15.5413 18.192 15.6617 18.451C15.67 18.4679 15.6783 18.4847 15.6866 18.5016C15.8196 18.7753 15.9899 19.0238 16.1934 19.245C16.2869 19.3461 16.2806 19.504 16.1809 19.5988Z" fill="#2AB678"/>
<path d="M11.6325 18.2973C11.6138 18.1857 11.6699 18.0783 11.7654 18.0319C11.7862 18.0214 11.809 18.013 11.8339 18.0088C11.9689 17.9856 12.0956 18.0761 12.1185 18.213C12.1808 18.5837 12.2763 18.9501 12.4009 19.3039C12.4861 19.5419 12.5837 19.7778 12.6959 20.0073C12.7623 20.1442 12.835 20.2811 12.9119 20.4117C13.1382 20.8034 13.4062 21.1719 13.7073 21.5047C13.7987 21.6057 13.7925 21.7637 13.6907 21.8585C13.591 21.9511 13.4352 21.9448 13.3418 21.8416C13.0178 21.4815 12.7291 21.0856 12.4861 20.6644C12.4051 20.5233 12.3262 20.378 12.2535 20.2284C12.133 19.982 12.0271 19.7293 11.9357 19.4724C11.8007 19.0912 11.6989 18.6953 11.6304 18.2973H11.6325Z" fill="#2AB678"/>
<path d="M11.8406 15.052C11.8613 14.9846 11.9091 14.9298 11.9673 14.9025C12.0213 14.8751 12.0857 14.8688 12.148 14.8877C12.2788 14.9277 12.3515 15.0688 12.312 15.1994C12.2186 15.5111 12.1459 15.8312 12.0981 16.1513C12.0483 16.484 12.0254 16.8231 12.0275 17.1601C12.0275 17.2969 11.9195 17.4107 11.7824 17.4107C11.6474 17.4107 11.5353 17.3012 11.5353 17.1622C11.5332 16.7999 11.5581 16.4356 11.6121 16.0776C11.664 15.7322 11.7409 15.3889 11.8406 15.0541V15.052Z" fill="#2AB678"/>
<path d="M13.2978 12.4238C13.3186 12.3985 13.3456 12.3795 13.3726 12.3669C13.4598 12.3227 13.5678 12.3353 13.6467 12.4048C13.7485 12.4975 13.7568 12.6554 13.6675 12.7565C13.4639 12.9882 13.2749 13.2367 13.1046 13.4957C12.9364 13.7547 12.7827 14.0285 12.6519 14.3107C12.5937 14.4349 12.4463 14.4876 12.3237 14.4286C12.2012 14.3697 12.1493 14.2201 12.2074 14.0959C12.3486 13.7926 12.5127 13.4957 12.6955 13.2177C12.8783 12.9397 13.0818 12.6702 13.3019 12.4216L13.2978 12.4238Z" fill="#2AB678"/>
<path d="M16.627 24.2361C17.7194 24.5246 18.8762 24.5541 19.9728 24.3161C20.1058 24.2866 20.2366 24.373 20.2657 24.5078C20.2948 24.6425 20.2096 24.7752 20.0767 24.8047C19.4848 24.9332 18.8783 24.9879 18.2719 24.9732C17.6758 24.9584 17.0818 24.8721 16.5044 24.7184C15.738 24.5162 15.0111 24.1982 14.3424 23.7749C14.2261 23.7012 14.1928 23.5474 14.2634 23.4316C14.2884 23.3916 14.3237 23.36 14.3631 23.3411C14.4379 23.3031 14.5272 23.3053 14.604 23.3537C15.2313 23.7496 15.9125 24.0487 16.629 24.2382L16.627 24.2361Z" fill="#2AB678"/>
<path d="M13.258 22.2586C13.3536 22.3576 13.3515 22.5155 13.2539 22.6124C13.1563 22.7093 13.0005 22.7072 12.9049 22.6082C12.5394 22.2291 12.2092 21.8079 11.9247 21.3593C11.773 21.1172 11.6297 20.8644 11.503 20.6054C11.42 20.4369 11.3431 20.2621 11.2725 20.0873C11.2227 19.9652 11.2767 19.8262 11.3909 19.7693C11.3971 19.7672 11.4013 19.7651 11.4075 19.7609C11.5342 19.7083 11.6775 19.7693 11.7294 19.8978C11.7959 20.06 11.8686 20.2242 11.9454 20.3822C12.0638 20.6244 12.1967 20.8623 12.34 21.0898C12.6059 21.511 12.9153 21.9027 13.258 22.2586Z" fill="#2AB678"/>
<path d="M10.8684 16.1955C10.9079 16.1766 10.9536 16.166 11.0014 16.1702C11.1364 16.1829 11.2361 16.305 11.2236 16.4419C11.1904 16.8126 11.1841 17.1874 11.2049 17.5581C11.2278 17.9456 11.2818 18.3352 11.3648 18.7143C11.3939 18.849 11.3108 18.9817 11.1779 19.0133C11.045 19.0428 10.9141 18.9585 10.883 18.8238C10.7937 18.4194 10.7355 18.0045 10.7127 17.5876C10.6898 17.1916 10.6961 16.7915 10.7314 16.3956C10.7397 16.305 10.7937 16.2313 10.8664 16.1955H10.8684Z" fill="#2AB678"/>
<path d="M11.717 14.3676C11.5882 14.694 11.4802 15.033 11.3992 15.3763C11.3681 15.5111 11.2331 15.5932 11.1022 15.5595C10.9693 15.5279 10.8883 15.3911 10.9215 15.2584C11.0087 14.8919 11.123 14.5297 11.2621 14.1822C11.3992 13.8347 11.5612 13.4936 11.746 13.1693C11.771 13.125 11.8084 13.0913 11.8499 13.0703C11.9205 13.0345 12.0077 13.0345 12.0825 13.0766C12.2009 13.1461 12.2403 13.2977 12.1739 13.4178C12.0015 13.721 11.8478 14.0411 11.7211 14.3655L11.717 14.3676Z" fill="#2AB678"/>
<path d="M21.0565 13.9021C21.1645 13.6305 21.2497 13.3462 21.3141 13.0619C21.3805 12.7649 21.4241 12.4617 21.4449 12.1584C21.4657 11.8404 21.4595 11.5182 21.4262 11.2002C21.3909 10.8632 21.3265 10.5263 21.231 10.202C21.1978 10.084 21.2518 9.95977 21.3577 9.90713C21.3701 9.90081 21.3847 9.89449 21.3971 9.89028C21.528 9.85237 21.6651 9.92818 21.7025 10.0588C21.8042 10.4126 21.8769 10.779 21.9143 11.1454C21.9496 11.4908 21.9558 11.8404 21.9351 12.1879C21.9143 12.5164 21.8665 12.8471 21.7938 13.1714C21.7232 13.4831 21.6298 13.7905 21.5135 14.0854C21.4636 14.2138 21.3203 14.2749 21.1936 14.2244C21.0669 14.1738 21.0067 14.0285 21.0565 13.9V13.9021Z" fill="#2AB678"/>
<path d="M10.8322 13.0977C11.0274 12.7144 11.2538 12.3416 11.503 11.992C11.7813 11.6024 12.0929 11.2339 12.4293 10.8969C12.448 10.878 12.4709 10.8632 12.4937 10.8506C12.5872 10.8043 12.7014 10.8211 12.7783 10.899C12.8738 10.998 12.8717 11.156 12.7762 11.2528C12.4584 11.5708 12.1635 11.9183 11.9018 12.2848C11.6671 12.6154 11.4553 12.965 11.2704 13.3272C11.0939 13.6747 10.9381 14.039 10.8114 14.4118C10.7678 14.5424 10.6266 14.6119 10.4978 14.5655C10.3691 14.5192 10.3005 14.3781 10.3462 14.2475C10.4812 13.8537 10.6453 13.4683 10.8322 13.0977Z" fill="#2AB678"/>
<path d="M10.0111 16.4925C10.0484 16.4735 10.0879 16.4651 10.1315 16.4672C10.2665 16.4735 10.3724 16.5914 10.3662 16.7283C10.3475 17.1369 10.3579 17.5475 10.3994 17.954C10.4431 18.3773 10.5178 18.8006 10.6258 19.2134C10.7401 19.6493 10.8896 20.0789 11.0744 20.4917C11.116 20.5843 11.1575 20.6749 11.2011 20.7612C11.3714 21.1108 11.5687 21.4499 11.7847 21.7679C12.088 22.2165 12.4369 22.6356 12.8232 23.0125C13.2739 23.4548 13.7765 23.8423 14.3165 24.1687C15.0102 24.5857 15.7579 24.8953 16.5429 25.0911C18.3727 25.5439 20.3104 25.3354 22.0031 24.5014C22.0135 24.4972 22.0239 24.4909 22.0322 24.4867C22.0509 24.4762 22.0716 24.4677 22.0903 24.4572C22.1007 24.453 22.1111 24.4467 22.1215 24.4425C22.244 24.3814 22.3915 24.4319 22.4517 24.5562C22.5119 24.6804 22.4621 24.83 22.3396 24.891C22.3292 24.8953 22.3209 24.9016 22.3105 24.9058C22.2897 24.9163 22.2689 24.9268 22.2482 24.9374C22.2378 24.9416 22.2295 24.9479 22.2191 24.9521C21.3053 25.4049 20.3312 25.685 19.326 25.7861C18.354 25.8851 17.3799 25.8156 16.4266 25.5776C15.5938 25.3712 14.8004 25.0427 14.0652 24.6004C13.492 24.255 12.9582 23.8423 12.4805 23.3747C12.0714 22.9746 11.7017 22.5303 11.3797 22.0543C11.1513 21.7152 10.9436 21.3572 10.7608 20.9866C10.7151 20.8939 10.6715 20.797 10.6279 20.7002C10.4327 20.2621 10.2728 19.8051 10.1523 19.3439C10.0381 18.908 9.95707 18.4573 9.91137 18.0088C9.86776 17.5791 9.85737 17.1411 9.87607 16.7094C9.88022 16.6146 9.9363 16.5367 10.0131 16.4967L10.0111 16.4925Z" fill="#2AB678"/>
<path d="M13.6969 25.0722C13.7218 25.0279 13.7592 24.9942 13.8007 24.9711C13.8714 24.9353 13.9586 24.9353 14.0313 24.9774C14.7894 25.4154 15.6056 25.7376 16.4571 25.9377C18.4447 26.4031 20.5465 26.1588 22.3783 25.2533C22.395 25.2449 22.4116 25.2364 22.4303 25.228C22.4469 25.2196 22.4635 25.2112 22.4801 25.2027C24.3805 24.2382 26.0171 22.903 27.3463 21.2351C27.527 21.0077 27.7056 20.7718 27.8738 20.5317C27.8988 20.498 27.9299 20.4706 27.9652 20.4538C28.0441 20.4138 28.1418 20.418 28.2186 20.4748C28.3287 20.5549 28.3557 20.7107 28.2768 20.8223C28.1023 21.0687 27.9195 21.313 27.7326 21.5489C27.0618 22.3913 26.3016 23.1621 25.4729 23.8423C24.6214 24.5415 23.691 25.148 22.7044 25.6492C22.6982 25.6513 22.694 25.6555 22.6878 25.6576C22.6816 25.6618 22.6733 25.6639 22.667 25.6682C22.6567 25.6745 22.6442 25.6787 22.6338 25.685C22.6255 25.6892 22.6193 25.6934 22.611 25.6955C22.6047 25.6976 22.6006 25.7018 22.5943 25.704C21.6099 26.1904 20.5631 26.4979 19.4811 26.6158C18.4343 26.7296 17.3813 26.6664 16.3512 26.4242C15.4519 26.2136 14.592 25.8745 13.7924 25.4133C13.6741 25.3459 13.6325 25.1922 13.7011 25.0722H13.6969Z" fill="#2AB678"/>
<path d="M10.9233 22.3618C11.0293 22.3091 11.1601 22.3386 11.2328 22.4397C11.5734 22.9157 11.9639 23.36 12.3896 23.7601C12.4893 23.8528 12.4955 24.0108 12.4042 24.114C12.3128 24.215 12.157 24.2214 12.0552 24.1287C11.6046 23.7075 11.1933 23.2379 10.8319 22.7345C10.753 22.6229 10.7759 22.4671 10.8859 22.385C10.8963 22.3765 10.9088 22.3702 10.9213 22.3639L10.9233 22.3618Z" fill="#2AB678"/>
<path d="M10.0085 21.3572C9.99808 21.3362 9.9877 21.3172 9.97939 21.2962C9.75509 20.8286 9.56609 20.3422 9.4207 19.8473C9.28155 19.3776 9.17771 18.8954 9.11332 18.411C9.05102 17.9456 9.02194 17.4717 9.02817 17.0021C9.02817 16.9052 9.08425 16.821 9.16525 16.781C9.19848 16.7641 9.23794 16.7536 9.2774 16.7557C9.4124 16.7557 9.52247 16.8715 9.5204 17.0084C9.51416 17.4549 9.54116 17.9035 9.60139 18.3436C9.6637 18.8027 9.76132 19.2597 9.89216 19.7041C10.0313 20.1737 10.2078 20.6349 10.4218 21.0772C10.4301 21.0961 10.4405 21.1151 10.4488 21.134C10.509 21.2583 10.4592 21.4078 10.3366 21.4689C10.2141 21.5299 10.0666 21.4794 10.0064 21.3551L10.0085 21.3572Z" fill="#2AB678"/>
<path d="M9.9411 13.0134C10.1446 12.5754 10.3835 12.1521 10.6493 11.7519C10.6742 11.714 10.7075 11.6867 10.7449 11.6677C10.8217 11.6298 10.9152 11.6319 10.992 11.6846C11.1042 11.7625 11.1353 11.9162 11.0585 12.032C10.8072 12.4111 10.5808 12.8134 10.3876 13.2282C10.2049 13.622 10.047 14.0327 9.92033 14.4497C9.79571 14.8603 9.6981 15.2836 9.63164 15.7091C9.61087 15.8459 9.48418 15.9386 9.34918 15.9175C9.21418 15.8965 9.1228 15.768 9.14357 15.6311C9.21418 15.1826 9.31595 14.7361 9.44679 14.3023C9.57972 13.8642 9.74587 13.4304 9.93902 13.0155L9.9411 13.0134Z" fill="#2AB678"/>
<path d="M8.76585 15.867C8.70562 16.3366 8.6807 16.8126 8.689 17.2864C8.69731 17.7708 8.74093 18.2573 8.81777 18.7332C8.84062 18.8701 8.74923 18.9986 8.61424 19.0196C8.47924 19.0428 8.35255 18.9501 8.33178 18.8132C8.25078 18.312 8.20509 17.8024 8.19678 17.2927C8.18847 16.7957 8.21547 16.2945 8.27778 15.8017C8.34008 15.3131 8.43562 14.8224 8.56647 14.3465C8.58516 14.2749 8.63293 14.2201 8.69524 14.1885C8.74716 14.1612 8.80946 14.1548 8.8697 14.1717C9.00054 14.2075 9.07738 14.3465 9.04208 14.4792C8.91954 14.9341 8.82608 15.3995 8.76793 15.8649L8.76585 15.867Z" fill="#2AB678"/>
<path d="M9.16952 20.1969C9.3149 20.6454 9.49351 21.0877 9.70121 21.511C9.72613 21.5636 9.75313 21.6142 9.77805 21.6647C10.0377 22.1723 10.3409 22.6608 10.6794 23.1115C11.0595 23.6169 11.4873 24.0866 11.9567 24.5078C12.5029 25.0006 13.1073 25.4302 13.7491 25.7882C13.8675 25.8535 13.9132 26.0072 13.8467 26.1272C13.7823 26.2473 13.6307 26.2936 13.5123 26.2262C12.8373 25.8514 12.2018 25.3986 11.6286 24.8805C11.1363 24.4383 10.6857 23.9434 10.2869 23.4127C9.92966 22.9388 9.6119 22.4271 9.33982 21.8922C9.31282 21.8395 9.28583 21.7869 9.25883 21.7321C9.04075 21.2856 8.85175 20.8202 8.70014 20.3506C8.66068 20.2306 8.71675 20.1042 8.82475 20.0494C8.83514 20.0452 8.84552 20.0389 8.85798 20.0368C8.98675 19.9947 9.1259 20.0642 9.16952 20.1969Z" fill="#2AB678"/>
<path d="M16.2145 26.8054C16.2623 26.7801 16.3204 26.7717 16.3765 26.7843C18.5469 27.2666 20.7484 26.9991 22.7443 26.0114C22.763 26.003 22.7796 25.9925 22.7983 25.984C22.817 25.9735 22.8357 25.9651 22.8565 25.9546C23.8534 25.4491 24.7942 24.8363 25.654 24.1329C25.6686 24.1203 25.6831 24.1118 25.6997 24.1034C25.8015 24.0529 25.9261 24.0781 26.0009 24.1708C26.086 24.2782 26.0694 24.4362 25.9635 24.5225C25.0767 25.247 24.1047 25.8787 23.0787 26.401C23.0724 26.4031 23.0683 26.4073 23.0621 26.4094C23.0538 26.4137 23.0454 26.4179 23.0371 26.4221C23.0247 26.4284 23.0143 26.4326 23.0018 26.4389C22.9935 26.4431 22.9852 26.4474 22.9769 26.4516C22.9707 26.4537 22.9665 26.4579 22.9603 26.46C21.9073 26.9823 20.7858 27.3129 19.6289 27.4456C18.5095 27.574 17.3817 27.5151 16.2748 27.2687C16.1418 27.2392 16.0588 27.1065 16.0878 26.9717C16.1044 26.8938 16.1543 26.8348 16.2187 26.8012L16.2145 26.8054Z" fill="#2AB678"/>
<path d="M12.3424 12.4701C12.3424 12.4701 12.3424 12.468 12.3424 12.4659C12.3424 12.4617 12.3403 12.4574 12.3383 12.4553C12.3383 12.4532 12.3383 12.449 12.3362 12.4469C12.3362 12.4448 12.3362 12.4406 12.3341 12.4385C12.3341 12.4364 12.3341 12.4322 12.3341 12.4301V12.4259C12.3341 12.4195 12.3341 12.4153 12.332 12.409C12.332 12.409 12.332 12.4069 12.332 12.4048C12.332 12.4006 12.332 12.3985 12.332 12.3943C12.332 12.3943 12.332 12.3922 12.332 12.39C12.332 12.3858 12.332 12.3795 12.332 12.3753C12.332 12.3732 12.332 12.3711 12.332 12.369C12.332 12.3669 12.332 12.3648 12.332 12.3627C12.332 12.3585 12.332 12.3542 12.332 12.35C12.332 12.35 12.332 12.3479 12.332 12.3458C12.332 12.3416 12.332 12.3353 12.3341 12.3311C12.3341 12.3311 12.3341 12.329 12.3341 12.3269C12.3362 12.3163 12.3383 12.3058 12.3424 12.2953C12.3424 12.289 12.3466 12.2848 12.3486 12.2805C12.3507 12.2763 12.3528 12.27 12.3549 12.2658C12.3549 12.2658 12.3549 12.2658 12.3549 12.2637C12.3549 12.2595 12.359 12.2553 12.3611 12.2532C12.3611 12.2532 12.3611 12.2511 12.3632 12.249C12.3653 12.2447 12.3673 12.2426 12.3694 12.2384C12.3694 12.2363 12.3736 12.2342 12.3736 12.2321C12.3736 12.2321 12.3756 12.2279 12.3777 12.2258C12.3777 12.2258 12.3777 12.2237 12.3798 12.2216C12.386 12.2131 12.3943 12.2047 12.4006 12.1963C12.4089 12.1858 12.4172 12.1752 12.4255 12.1647C12.4338 12.1542 12.44 12.1458 12.4483 12.1352C12.4566 12.1247 12.465 12.1142 12.4733 12.1036C12.4816 12.0931 12.4899 12.0847 12.4961 12.0742C12.5044 12.0636 12.5127 12.0531 12.521 12.0447C12.5293 12.0341 12.5376 12.0257 12.546 12.0152C12.5543 12.0047 12.5626 11.9962 12.5709 11.9857C12.5792 11.9752 12.5875 11.9646 12.5958 11.9562C12.6041 11.9478 12.6124 11.9373 12.6207 11.9288C12.629 11.9183 12.6373 11.9078 12.6477 11.8994C12.656 11.8909 12.6643 11.8804 12.6726 11.872C12.681 11.8615 12.6913 11.8509 12.6996 11.8404C12.708 11.832 12.7163 11.8235 12.7225 11.813C12.7329 11.8025 12.7412 11.792 12.7516 11.7814C12.7599 11.773 12.7682 11.7646 12.7744 11.7562C12.7827 11.7456 12.7931 11.7351 12.8035 11.7267C12.8118 11.7182 12.8201 11.7098 12.8284 11.7014C12.8388 11.6909 12.8471 11.6803 12.8575 11.6719C12.8658 11.6635 12.8741 11.6551 12.8824 11.6466C12.8928 11.6361 12.9011 11.6256 12.9115 11.6151C12.9198 11.6066 12.9281 11.5982 12.9343 11.5898C12.9447 11.5793 12.9551 11.5687 12.9655 11.5582C12.9738 11.5498 12.9821 11.5413 12.9883 11.535C12.9987 11.5245 13.0091 11.514 13.0195 11.5034C13.0278 11.495 13.034 11.4887 13.0423 11.4803C13.0527 11.4697 13.0631 11.4592 13.0735 11.4487C13.0818 11.4403 13.088 11.4339 13.0963 11.4255C13.1067 11.415 13.1192 11.4045 13.1296 11.3939C13.1379 11.3876 13.1441 11.3792 13.1524 11.3729C13.1711 11.356 13.1898 11.3371 13.2085 11.3202C13.7402 10.8253 14.3383 10.4083 14.9884 10.0777C14.9967 10.0735 15.0029 10.0693 15.0112 10.0672C15.0195 10.063 15.0278 10.0587 15.0362 10.0545C15.1587 9.99768 15.3062 10.0503 15.3622 10.1767C15.4183 10.2988 15.3685 10.442 15.2542 10.5031C15.2501 10.5031 15.2459 10.5073 15.2438 10.5094C15.2397 10.5094 15.2355 10.5136 15.2314 10.5157C15.2272 10.5178 15.2231 10.52 15.2189 10.5221H15.2127C15.1358 10.5642 15.0611 10.6042 14.9863 10.6442C14.4629 10.9327 13.979 11.2823 13.5449 11.6888C13.4037 11.8193 13.2687 11.9562 13.1379 12.0994C13.007 12.2405 12.8824 12.3879 12.7661 12.5396L12.7308 12.5838L12.683 12.607C12.683 12.607 12.6623 12.6154 12.6519 12.6196C12.6166 12.6322 12.5792 12.6364 12.5418 12.6322C12.5397 12.6322 12.5356 12.6322 12.5335 12.6322C12.5335 12.6322 12.5314 12.6322 12.5293 12.6322C12.5273 12.6322 12.5252 12.6322 12.5231 12.6322H12.519C12.519 12.6322 12.5148 12.6322 12.5127 12.6322C12.5106 12.6322 12.5086 12.6322 12.5065 12.6322C12.5065 12.6322 12.5044 12.6322 12.5023 12.6322C12.5003 12.6322 12.4982 12.6322 12.494 12.6301C12.494 12.6301 12.492 12.6301 12.4899 12.6301C12.4878 12.6301 12.4857 12.6301 12.4816 12.628H12.4774C12.4774 12.628 12.4733 12.628 12.4712 12.6259C12.467 12.6259 12.465 12.6238 12.4608 12.6217C12.4317 12.607 12.4047 12.5859 12.384 12.5585C12.3819 12.5564 12.3798 12.5522 12.3777 12.5501C12.3777 12.5501 12.3777 12.5501 12.3777 12.548C12.3777 12.5459 12.3736 12.5438 12.3736 12.5417C12.3736 12.5417 12.3736 12.5396 12.3715 12.5375C12.3715 12.5375 12.3694 12.5333 12.3673 12.5311C12.3673 12.529 12.3653 12.5269 12.3632 12.5248C12.3632 12.5248 12.3632 12.5227 12.3611 12.5206C12.3611 12.5185 12.359 12.5143 12.357 12.5122C12.357 12.5122 12.357 12.5122 12.357 12.5101C12.3549 12.5059 12.3528 12.4996 12.3507 12.4953L12.3424 12.4701Z" fill="#2AB678"/>
<path d="M16.7551 10.3494C16.7779 10.322 16.8049 10.303 16.834 10.2883C16.9192 10.2462 17.0251 10.2546 17.104 10.322C17.3013 10.4926 17.4612 10.699 17.5776 10.9369C17.6191 11.0191 17.6523 11.1054 17.6814 11.1939C17.7832 11.5077 17.8039 11.8467 17.7416 12.171C17.7146 12.3058 17.5859 12.3943 17.4529 12.369C17.32 12.3416 17.2328 12.211 17.2577 12.0763C17.3034 11.8341 17.2889 11.5835 17.2141 11.3518C17.1933 11.2865 17.1663 11.2234 17.1373 11.1602C17.05 10.9833 16.9316 10.8295 16.7863 10.7032C16.6824 10.6147 16.6699 10.4568 16.7572 10.3515L16.7551 10.3494Z" fill="#2AB678"/>
<path d="M14.0664 16.5978C14.0996 16.2987 14.164 16.0039 14.2554 15.7175C14.3468 15.4332 14.4672 15.1552 14.6126 14.894C14.7684 14.6161 14.9532 14.3549 15.163 14.1169C15.5389 13.6915 15.9855 13.3462 16.4922 13.0913C16.6148 13.0303 16.7622 13.0808 16.8225 13.2051C16.8827 13.3293 16.8328 13.4788 16.7103 13.5399C16.2596 13.7674 15.8629 14.0727 15.5306 14.4518C15.3437 14.6624 15.1796 14.8962 15.0425 15.1426C14.9138 15.3742 14.8058 15.6206 14.7248 15.8754C14.6438 16.1302 14.5856 16.3935 14.5566 16.6588C14.5399 16.7957 14.4195 16.8947 14.2845 16.8779C14.1495 16.861 14.0519 16.7389 14.0685 16.602L14.0664 16.5978Z" fill="#2AB678"/>
<path d="M24.43 17.0611C24.5442 17.1348 24.5775 17.2906 24.5048 17.4065C24.1766 17.9266 23.8028 18.4194 23.3895 18.8722C22.5442 19.8009 21.5452 20.557 20.4195 21.1235C19.8525 21.4078 19.2461 21.5657 18.6168 21.5868C18.0103 21.6079 17.4122 21.5047 16.8452 21.2793C16.3509 21.0835 15.9002 20.8034 15.5076 20.4475C15.1982 20.1674 14.9303 19.8452 14.7101 19.4893C14.6333 19.365 14.5606 19.2344 14.4962 19.0996C14.4027 18.9059 14.3197 18.7058 14.2553 18.5016C14.1535 18.1857 14.087 17.8592 14.0559 17.5286C14.0455 17.4233 14.1037 17.3264 14.1909 17.2822C14.2179 17.2696 14.247 17.2611 14.2781 17.2569C14.4131 17.2443 14.5336 17.3454 14.546 17.4823C14.573 17.775 14.6333 18.0656 14.7226 18.3457C14.7807 18.5268 14.8534 18.7058 14.9365 18.8764C14.9946 18.9944 15.059 19.1123 15.1276 19.2218C15.3228 19.5377 15.5616 19.8241 15.8358 20.0726C16.1847 20.3885 16.5856 20.6391 17.0259 20.8118C18.056 21.2204 19.2149 21.1698 20.2035 20.6728C21.2752 20.1337 22.2264 19.4134 23.0302 18.5289C23.4227 18.0972 23.7799 17.6276 24.0915 17.1327C24.1642 17.0169 24.3179 16.9832 24.4321 17.0569L24.43 17.0611Z" fill="#2AB678"/>
<path d="M25.2774 14.4265C25.3999 13.9716 25.4934 13.5062 25.5515 13.0408C25.6118 12.5712 25.6367 12.0931 25.6284 11.6214C25.6284 11.5224 25.6824 11.4339 25.7655 11.3939C25.7966 11.3771 25.8319 11.3687 25.8714 11.3687C26.0064 11.3665 26.1185 11.4761 26.1227 11.615C26.131 12.1121 26.104 12.6133 26.0417 13.1061C25.9794 13.5947 25.8838 14.0853 25.753 14.5613C25.6201 15.0478 25.4518 15.5279 25.2525 15.9891C25.1985 16.1155 25.0531 16.1724 24.9285 16.1176C24.8039 16.0628 24.7478 15.9154 24.8018 15.7891C24.9908 15.351 25.1528 14.8919 25.2774 14.4307V14.4265Z" fill="#2AB678"/>
<path d="M25.9898 10.0945C26.0126 10.2314 25.9212 10.3599 25.7862 10.381C25.6512 10.4041 25.5245 10.3115 25.5038 10.1746C25.4768 10.0082 25.4456 9.83972 25.4082 9.67546C25.3833 9.56174 25.4394 9.44801 25.5391 9.39747C25.5578 9.38905 25.5765 9.38062 25.5952 9.37641C25.7281 9.34693 25.8589 9.43327 25.888 9.56805C25.9254 9.74074 25.9586 9.91764 25.9877 10.0924L25.9898 10.0945Z" fill="#2AB678"/>
<path d="M18.3243 10.56C18.9993 11.9373 18.4406 13.6157 17.0823 14.2981C16.9598 14.3591 16.8123 14.3086 16.7521 14.1843C16.6919 14.0601 16.7417 13.9106 16.8643 13.8495C17.9796 13.2893 18.4365 11.912 17.884 10.7811C17.8238 10.6568 17.8736 10.5073 17.9962 10.4462C18.1187 10.3852 18.2662 10.4357 18.3264 10.56H18.3243Z" fill="#2AB678"/>
<path d="M14.6395 9.3006C15.4703 8.88152 16.4485 8.91732 17.2523 9.39326C17.3706 9.46276 17.4101 9.6165 17.3416 9.73443C17.273 9.85447 17.1214 9.89448 17.0051 9.82499C16.3447 9.43328 15.543 9.4059 14.8597 9.74917C14.7371 9.81025 14.5897 9.7597 14.5294 9.63545C14.4692 9.5112 14.5191 9.36167 14.6416 9.3006H14.6395Z" fill="#2AB678"/>
<path d="M18.4686 13.9316C18.3565 13.8537 18.3295 13.6979 18.4063 13.5841C18.5642 13.3525 18.6909 13.0998 18.7822 12.8323C18.8674 12.5838 18.9214 12.3248 18.9442 12.0636C18.9671 11.7983 18.9567 11.5308 18.911 11.2676C18.8632 10.9875 18.7781 10.7158 18.6576 10.4568C18.6493 10.4399 18.641 10.4231 18.6327 10.4062C18.5019 10.1409 18.3378 9.8966 18.1405 9.67968L18.1259 9.66284C17.8539 9.36589 17.5299 9.12792 17.1623 8.95734C16.3045 8.5551 15.3304 8.56773 14.4872 8.99103C13.563 9.45645 12.7364 10.0693 12.0261 10.8169C11.9326 10.9159 11.7769 10.9201 11.6772 10.8232C11.5795 10.7285 11.5754 10.5705 11.6709 10.4694C12.4207 9.67968 13.2951 9.03105 14.2691 8.54036C14.2691 8.54036 14.2691 8.54036 14.2712 8.54036C14.7655 8.29185 15.293 8.16549 15.8414 8.16339C16.3647 8.16128 16.8923 8.27711 17.3699 8.50245C17.7376 8.67514 18.0678 8.90469 18.3565 9.18689H18.3606L18.4852 9.32167C18.7199 9.5786 18.9193 9.86922 19.073 10.1851C19.0834 10.2062 19.0917 10.2251 19.1021 10.2441C19.2412 10.5431 19.3409 10.859 19.3949 11.1833C19.4469 11.4866 19.4593 11.7983 19.4323 12.1058C19.4074 12.409 19.343 12.7081 19.2454 12.9966C19.1395 13.3062 18.992 13.5989 18.8092 13.8684C18.7324 13.9822 18.5787 14.0095 18.4666 13.9316H18.4686Z" fill="#2AB678"/>
<path d="M19.1535 14.7887C18.7796 15.2141 18.331 15.5595 17.8243 15.8143C17.4255 16.0144 17.1451 16.3872 17.06 16.8336C17.0143 17.0758 17.0288 17.3264 17.1036 17.5581C17.1244 17.6234 17.1514 17.6865 17.1804 17.7497C17.2677 17.9266 17.386 18.0804 17.5314 18.2067C17.9613 18.5774 18.5657 18.6574 19.0725 18.4089C19.0787 18.4068 19.0829 18.4026 19.0891 18.4005C19.0933 18.3984 19.0974 18.3963 19.1036 18.3941H19.1078C19.7163 18.0825 20.2792 17.6908 20.7755 17.2274C20.7922 17.2106 20.8129 17.198 20.8337 17.1874C20.9292 17.139 21.0476 17.1579 21.1245 17.2422C21.2158 17.3433 21.2096 17.5012 21.1099 17.596C20.5803 18.0909 19.9801 18.5079 19.3321 18.8364C19.33 18.8364 19.3279 18.8385 19.3259 18.8406C19.3155 18.8448 19.3072 18.8511 19.2968 18.8554C19.2947 18.8554 19.2906 18.8575 19.2885 18.8596C18.6073 19.1923 17.7931 19.0849 17.2157 18.5858C17.0184 18.4152 16.8585 18.2088 16.7422 17.9708C16.7027 17.8887 16.6674 17.8024 16.6384 17.7139C16.5366 17.4001 16.5158 17.0632 16.5781 16.7368C16.6342 16.4503 16.7526 16.1745 16.925 15.9407C17.1057 15.6964 17.3341 15.5027 17.6062 15.3658C18.0569 15.1383 18.4536 14.833 18.7859 14.4539C18.8066 14.4286 18.8336 14.4097 18.8606 14.397C18.9479 14.3528 19.0579 14.3654 19.1348 14.4349C19.2366 14.5276 19.2449 14.6855 19.1535 14.7866V14.7887Z" fill="#2AB678"/>
<path d="M20.061 13.1882C19.9696 13.4746 19.8491 13.7505 19.7038 14.0116C19.6373 14.1317 19.4857 14.1738 19.3673 14.1064C19.2489 14.039 19.2074 13.8853 19.2738 13.7653C19.4026 13.5336 19.5106 13.2872 19.5916 13.0324C19.6726 12.7776 19.7308 12.5143 19.7598 12.249C19.7702 12.1626 19.8221 12.091 19.8948 12.0531C19.9364 12.032 19.9841 12.0236 20.0319 12.0278C20.1669 12.0447 20.2645 12.1668 20.2479 12.3037C20.2147 12.6028 20.1503 12.8976 20.0568 13.184L20.061 13.1882Z" fill="#2AB678"/>
<path d="M18.4809 8.83098C18.3791 8.73831 18.3708 8.58037 18.4601 8.47928C18.4809 8.45401 18.5079 8.43506 18.5349 8.42242C18.6221 8.37819 18.7301 8.39083 18.809 8.46033C19.1185 8.74042 19.3864 9.06263 19.6066 9.41854C19.6834 9.54279 19.7561 9.67336 19.8205 9.80814C19.914 10.0019 19.997 10.202 20.0614 10.4062C20.1632 10.7221 20.2317 11.0486 20.2608 11.3792C20.2733 11.5161 20.1736 11.6382 20.0386 11.6509C19.9036 11.6635 19.7831 11.5624 19.7706 11.4255C19.7436 11.1328 19.6834 10.8422 19.5941 10.5621C19.536 10.381 19.4633 10.202 19.3802 10.0314C19.322 9.91344 19.2577 9.79551 19.1891 9.686C18.9939 9.3701 18.755 9.08159 18.4809 8.83519V8.83098Z" fill="#2AB678"/>
<path d="M17.4726 7.62636C17.5993 7.6769 17.6616 7.82221 17.6118 7.95067C17.5619 8.07914 17.4186 8.14232 17.2919 8.09177C16.2618 7.68322 15.105 7.73376 14.1163 8.23077C13.0447 8.76989 12.0934 9.49013 11.2897 10.3746C10.8972 10.8064 10.5399 11.276 10.2284 11.7709C9.95839 12.2005 9.71955 12.6554 9.51809 13.1229C9.46409 13.2493 9.31871 13.3061 9.19409 13.2514C9.06948 13.1966 9.0134 13.0492 9.0674 12.9229C9.27925 12.4322 9.53055 11.9541 9.81509 11.5034C10.1432 10.9833 10.5171 10.4905 10.9304 10.0377C11.7757 9.11106 12.7747 8.35291 13.8983 7.78641C13.8983 7.78641 13.8983 7.78641 13.9004 7.78641C14.4673 7.5021 15.0738 7.34416 15.7031 7.3231C16.3096 7.30204 16.9077 7.40523 17.4747 7.63057L17.4726 7.62636Z" fill="#2AB678"/>
<path d="M20.0791 8.62037C20.2639 8.87309 20.4301 9.14687 20.5692 9.43117C20.6066 9.50698 20.644 9.58701 20.6772 9.66493C20.8205 9.99978 20.9327 10.3494 21.0054 10.7032C21.0739 11.0338 21.1113 11.3708 21.1155 11.7077C21.1196 12.0257 21.0968 12.3458 21.0448 12.6617C20.995 12.9629 20.9202 13.2619 20.8205 13.5525C20.7229 13.8347 20.6025 14.1085 20.4612 14.3697C20.32 14.6287 20.158 14.8793 19.9773 15.111C19.7904 15.351 19.5827 15.5743 19.3584 15.7764C19.2566 15.8691 19.1009 15.8586 19.0116 15.7575C18.9202 15.6543 18.9306 15.4963 19.0302 15.4058C19.2338 15.2226 19.4228 15.0183 19.591 14.8014C19.7551 14.5908 19.9025 14.3654 20.0292 14.1296C20.158 13.8937 20.266 13.6431 20.3553 13.3883C20.4446 13.1271 20.5132 12.8555 20.5588 12.5817C20.6045 12.2953 20.6274 12.0047 20.6232 11.7182C20.6191 11.4129 20.5858 11.1075 20.5235 10.8085C20.4571 10.4863 20.3574 10.1704 20.2265 9.8671C20.1954 9.7955 20.1622 9.7239 20.1289 9.6544C20.0022 9.39748 19.8527 9.14897 19.6845 8.91942C19.4352 8.57825 19.1403 8.27289 18.8101 8.00964C18.3885 7.67269 17.9149 7.41155 17.404 7.23465C17.1278 7.13778 16.8391 7.06828 16.5504 7.02405C16.4154 7.00299 16.322 6.87664 16.3427 6.73975C16.3552 6.65551 16.4071 6.58812 16.4777 6.55232C16.5213 6.53126 16.5712 6.52073 16.6231 6.52915C16.943 6.57759 17.2586 6.65551 17.564 6.76081C18.1268 6.95666 18.6481 7.24518 19.1154 7.61583C19.4789 7.90645 19.8049 8.24341 20.0791 8.62037Z" fill="#2AB678"/>
<path d="M21.1587 9.28376C21.0382 9.34693 20.8887 9.3006 20.8263 9.17846C20.6394 8.81413 20.4151 8.47085 20.1555 8.15917C19.8544 7.79273 19.5054 7.46631 19.1233 7.18832C18.9468 7.05986 18.7598 6.93982 18.5688 6.83452C18.4504 6.76713 18.4068 6.6155 18.4711 6.49546C18.4961 6.44913 18.5334 6.41333 18.5771 6.39227C18.6477 6.35647 18.7328 6.35647 18.8055 6.39648C19.0132 6.51231 19.2147 6.64077 19.4078 6.78187C19.8253 7.08513 20.2033 7.44104 20.5335 7.83906C20.8139 8.18023 21.059 8.55299 21.2625 8.94891C21.3248 9.07105 21.2791 9.22268 21.1587 9.28586V9.28376Z" fill="#2AB678"/>
<path d="M22.0087 13.7084C22.0295 13.641 22.0772 13.5862 22.1354 13.5567C22.1894 13.5294 22.2538 13.5231 22.3161 13.542C22.4469 13.582 22.5196 13.721 22.4802 13.8537C22.3825 14.178 22.26 14.5002 22.1146 14.8077C21.9734 15.1109 21.8093 15.4079 21.6265 15.6859C21.4438 15.966 21.2402 16.2334 21.0201 16.4819C20.7937 16.741 20.5445 16.9832 20.2807 17.2043C19.8716 17.5475 19.4209 17.8466 18.939 18.0888C18.939 18.0888 18.939 18.0888 18.937 18.0888C18.4032 18.3583 17.7531 18.1351 17.4873 17.5939C17.4769 17.5707 17.4665 17.5475 17.4561 17.5265C17.4561 17.5265 17.4561 17.5265 17.4561 17.5244C17.3523 17.2696 17.3481 16.9853 17.4437 16.7262C17.5392 16.4651 17.7282 16.2524 17.9754 16.1281C18.0979 16.0671 18.2454 16.1176 18.3056 16.2419C18.3658 16.3661 18.316 16.5156 18.1934 16.5767C17.9172 16.7157 17.7926 17.0505 17.911 17.337C17.9151 17.3496 17.9214 17.3622 17.9276 17.3749C18.0709 17.6697 18.426 17.7897 18.7147 17.6444C19.1633 17.4191 19.5829 17.1432 19.9629 16.8231C20.208 16.6167 20.4386 16.3914 20.6483 16.1513C20.8519 15.9196 21.0409 15.6711 21.2112 15.4121C21.3794 15.1531 21.5331 14.8793 21.6639 14.5971C21.7969 14.3107 21.9111 14.0137 22.0025 13.7105L22.0087 13.7084Z" fill="#2AB678"/>
<path d="M22.2365 9.75338C22.1077 9.79971 21.9665 9.73232 21.9208 9.60175C21.8356 9.36378 21.738 9.12791 21.6259 8.89836C21.5594 8.76147 21.4867 8.62458 21.4099 8.49401C21.1835 8.1023 20.9156 7.73376 20.6144 7.40102C20.4856 7.25781 20.3465 7.11671 20.2053 6.98614C20.1056 6.89348 20.0973 6.73553 20.1887 6.63234C20.2094 6.60918 20.2343 6.59022 20.2613 6.57759C20.3506 6.53336 20.4607 6.546 20.5376 6.6176C20.6892 6.7587 20.8387 6.90822 20.9779 7.06406C21.3019 7.42418 21.5906 7.8201 21.8336 8.2413C21.9146 8.3824 21.9935 8.52771 22.0662 8.67723C22.1866 8.92363 22.2926 9.17634 22.3839 9.43327C22.4296 9.56384 22.3632 9.70705 22.2344 9.75338H22.2365Z" fill="#2AB678"/>
<path d="M22.3357 10.4273C22.3565 10.4168 22.3793 10.4083 22.4043 10.4041C22.5393 10.381 22.6659 10.4715 22.6888 10.6084C22.7511 10.9833 22.7843 11.3644 22.7885 11.7456C22.7906 12.1078 22.7656 12.4722 22.7116 12.8302C22.6909 12.9671 22.5663 13.0597 22.4313 13.0408C22.2963 13.0197 22.2049 12.8934 22.2236 12.7565C22.2734 12.4237 22.2963 12.0847 22.2942 11.7498C22.2921 11.396 22.2609 11.0422 22.2028 10.6947C22.1841 10.5831 22.2402 10.4757 22.3357 10.4294V10.4273Z" fill="#2AB678"/>
<path d="M22.3183 7.89171C22.204 7.96542 22.0524 7.93172 21.9776 7.8159C21.88 7.66216 21.7762 7.51053 21.6703 7.36733C21.5893 7.25782 21.61 7.09987 21.7201 7.01774C21.7326 7.00931 21.745 7.00089 21.7596 6.99246C21.8634 6.93981 21.9943 6.9693 22.0649 7.06617C22.1791 7.21991 22.2892 7.38207 22.393 7.54633C22.4657 7.66216 22.4325 7.8159 22.3183 7.89171Z" fill="#2AB678"/>
<path d="M23.4342 10.084C23.5235 10.4884 23.5817 10.9053 23.6066 11.3202C23.6149 11.4571 23.5111 11.5772 23.3761 11.5835C23.2411 11.5919 23.1227 11.4866 23.1164 11.3497C23.0936 10.9622 23.0396 10.5726 22.9565 10.1935C22.8672 9.7913 22.7447 9.39327 22.5889 9.00998C22.5391 8.88784 22.5931 8.74884 22.7073 8.69198C22.7135 8.68988 22.7177 8.68777 22.7239 8.68356C22.8506 8.63091 22.9939 8.69198 23.0458 8.82045C23.212 9.229 23.3428 9.65441 23.4384 10.084H23.4342Z" fill="#2AB678"/>
<path d="M21.5969 16.7262C21.491 16.6399 21.4723 16.484 21.5575 16.3745C21.7756 16.0944 21.9749 15.7954 22.1515 15.4858C22.3239 15.1826 22.4775 14.8625 22.6042 14.5381C22.733 14.2117 22.841 13.8727 22.922 13.5294C23.0051 13.1798 23.0653 12.8197 23.0965 12.4638C23.1048 12.3732 23.1588 12.2995 23.2315 12.2637C23.2709 12.2447 23.3166 12.2342 23.3623 12.2384C23.4973 12.2511 23.597 12.3732 23.5845 12.5101C23.5492 12.8913 23.4869 13.2746 23.3976 13.6473C23.3104 14.0138 23.1962 14.376 23.0591 14.7235C22.922 15.0709 22.76 15.4121 22.5752 15.7364C22.3862 16.0671 22.1743 16.3872 21.9396 16.6862C21.8545 16.7936 21.7008 16.8126 21.5928 16.7262H21.5969Z" fill="#2AB678"/>
<path d="M24.1702 9.56805C24.2055 9.70073 24.1265 9.83762 23.9957 9.87342C23.8649 9.90922 23.7299 9.82919 23.6945 9.69652C23.5803 9.26058 23.4308 8.83097 23.2459 8.4182C23.2044 8.32554 23.1629 8.23498 23.1192 8.14863C23.086 8.08124 23.0528 8.01385 23.0175 7.94646C22.9531 7.82432 22.9988 7.67269 23.1192 7.60951C23.1192 7.60951 23.1234 7.6074 23.1255 7.6074C23.2439 7.54843 23.3892 7.59477 23.4516 7.71481C23.4889 7.78641 23.5263 7.85801 23.5595 7.92961C23.6052 8.02228 23.6509 8.11915 23.6925 8.21602C23.8877 8.65406 24.0476 9.11106 24.1681 9.57227L24.1702 9.56805Z" fill="#2AB678"/>
<path d="M24.4114 10.9032C24.455 11.3329 24.4654 11.7709 24.4447 12.2026C24.4384 12.3395 24.3221 12.4469 24.1871 12.4406C24.0521 12.4343 23.9462 12.3163 23.9524 12.1794C23.9711 11.773 23.9607 11.3602 23.9192 10.9538C23.9088 10.8464 23.9649 10.7495 24.0542 10.7053C24.0791 10.6926 24.1082 10.6842 24.1394 10.68C24.2744 10.6653 24.3948 10.7663 24.4093 10.9032H24.4114Z" fill="#2AB678"/>
<path d="M24.8985 9.05842C25.0377 9.52805 25.1415 10.0103 25.2059 10.4947C25.2682 10.9601 25.2973 11.4339 25.2911 11.9036C25.2848 12.3606 25.2475 12.8218 25.1768 13.2746C25.1561 13.4114 25.0294 13.5041 24.8944 13.483C24.7594 13.462 24.668 13.3335 24.6888 13.1966C24.7552 12.767 24.7926 12.329 24.7968 11.8973C24.803 11.4508 24.776 11.0022 24.7158 10.5621C24.6535 10.103 24.5559 9.64388 24.425 9.20162C24.3772 9.03736 24.3232 8.87309 24.2651 8.71304C24.2215 8.593 24.2755 8.46033 24.3876 8.40346C24.3959 8.39925 24.4042 8.39504 24.4125 8.39293C24.5413 8.3466 24.6825 8.41189 24.7282 8.54246C24.7885 8.71304 24.8445 8.88573 24.8965 9.05842H24.8985Z" fill="#2AB678"/>
<path d="M24.8707 14.6055C24.7377 15.0436 24.5716 15.4774 24.3784 15.8923C24.1749 16.3303 23.9361 16.7536 23.6702 17.1537C23.5934 17.2675 23.4418 17.299 23.3275 17.2211C23.2154 17.1432 23.1842 16.9895 23.2611 16.8736C23.5124 16.4946 23.7388 16.0923 23.9319 15.6775C24.1147 15.2836 24.2725 14.873 24.3992 14.456C24.42 14.3886 24.4677 14.336 24.5259 14.3065C24.5799 14.2791 24.6443 14.2728 24.7087 14.2917C24.8395 14.3317 24.9122 14.4728 24.8707 14.6034V14.6055Z" fill="#2AB678"/>
<path d="M22.3636 18.0404C22.455 17.994 22.5672 18.0088 22.644 18.0846C22.7416 18.1793 22.7458 18.3373 22.6502 18.4384C21.9005 19.2281 21.0282 19.8768 20.052 20.3674C20.052 20.3674 20.052 20.3674 20.05 20.3674C19.5557 20.6159 19.0281 20.7423 18.4798 20.7444C17.9564 20.7465 17.4289 20.6307 16.9512 20.4053C16.8287 20.3485 16.7747 20.199 16.8308 20.0747C16.8557 20.02 16.8972 19.9799 16.945 19.9568C17.0094 19.9252 17.0883 19.921 17.1589 19.9547C18.0167 20.3569 18.9907 20.3443 19.834 19.921C20.7582 19.4556 21.5848 18.8427 22.2951 18.0951C22.3159 18.074 22.3387 18.0572 22.3636 18.0446V18.0404Z" fill="#2AB678"/>
<path d="M27.4532 18.1035C27.5238 18.0677 27.6069 18.0677 27.6816 18.1077C27.8 18.173 27.8436 18.3268 27.7793 18.4468C27.3577 19.226 26.8613 19.9652 26.3026 20.6454C25.7148 21.3593 25.0544 22.0143 24.3399 22.5913C23.6047 23.1852 22.803 23.7033 21.9556 24.1329C21.9473 24.1371 21.939 24.1413 21.9307 24.1455C21.9079 24.1561 21.8871 24.1687 21.8642 24.1792C21.7417 24.2382 21.5943 24.1877 21.5361 24.0634C21.5091 24.0065 21.5049 23.9434 21.5216 23.8844C21.5236 23.876 21.5257 23.8697 21.5299 23.8612C21.5506 23.8107 21.588 23.7644 21.6379 23.7349C21.642 23.7349 21.6462 23.7307 21.6482 23.7286C21.6482 23.7286 21.6483 23.7286 21.6503 23.7286C21.6649 23.7222 21.6773 23.7159 21.6919 23.7075C21.7064 23.7012 21.7189 23.6949 21.7334 23.6864C23.3575 22.8609 24.7678 21.73 25.9225 20.3253C26.4604 19.6704 26.9402 18.9564 27.3473 18.2067C27.3722 18.1604 27.4096 18.1246 27.4532 18.1035Z" fill="#2AB678"/>
<path d="M28.3982 15.6754C28.419 15.608 28.4668 15.5532 28.5249 15.5237C28.5789 15.4964 28.6433 15.49 28.7056 15.509C28.8365 15.549 28.9091 15.688 28.8697 15.8207C28.8115 16.0165 28.7471 16.2124 28.6807 16.404C28.635 16.5346 28.4938 16.602 28.3671 16.5557C28.2383 16.5093 28.1718 16.3661 28.2175 16.2377C28.2819 16.0523 28.3442 15.8649 28.4003 15.6754H28.3982Z" fill="#2AB678"/>
<path d="M24.1614 23.7812C24.0492 23.8612 23.8955 23.8339 23.8187 23.7201C23.7398 23.6064 23.7668 23.4506 23.8789 23.3727C24.9091 22.6398 25.8374 21.7679 26.635 20.7802C27.2103 20.0684 27.7191 19.2955 28.149 18.4805C28.2549 18.2804 28.3567 18.0762 28.4522 17.8719C28.4772 17.8192 28.5166 17.7792 28.5644 17.756C28.6288 17.7224 28.7077 17.7202 28.7804 17.756C28.9029 17.815 28.9549 17.9645 28.8967 18.0888C28.797 18.2994 28.6932 18.5121 28.5831 18.7185C28.1386 19.5609 27.6132 20.3611 27.0171 21.0982C26.1905 22.1217 25.2289 23.0252 24.1634 23.7833L24.1614 23.7812Z" fill="#2AB678"/>
<path d="M24.2988 13.4578C24.2199 13.8642 24.1119 14.2686 23.9789 14.6603C23.8439 15.0541 23.6799 15.4395 23.4929 15.8101C23.4306 15.9323 23.2811 15.9807 23.1606 15.9175C23.0402 15.8544 22.9924 15.7027 23.0547 15.5806C23.2312 15.2331 23.387 14.8688 23.5137 14.496C23.6404 14.1275 23.7422 13.7463 23.8149 13.3609C23.8294 13.2809 23.8813 13.2177 23.9478 13.184C23.9955 13.1608 24.0495 13.1524 24.1035 13.1629C24.2365 13.1903 24.3237 13.3209 24.2988 13.4557V13.4578Z" fill="#2AB678"/>
<path d="M22.8185 16.9137C22.5402 17.3033 22.2287 17.6739 21.8922 18.0088C21.7946 18.1056 21.6388 18.1035 21.5433 18.0066C21.4477 17.9077 21.4498 17.7497 21.5454 17.6528C21.8631 17.3348 22.156 16.9895 22.4197 16.6209C22.4447 16.5872 22.4758 16.562 22.509 16.543C22.588 16.503 22.6856 16.5072 22.7624 16.5641C22.8725 16.6441 22.8974 16.7999 22.8185 16.9137Z" fill="#2AB678"/>
<path d="M27.8334 16.2945C27.5966 16.9452 27.3058 17.5791 26.9694 18.1835C26.9029 18.3036 26.7513 18.3457 26.6329 18.2783C26.5145 18.2109 26.473 18.0572 26.5395 17.9372C26.8635 17.358 27.1418 16.7452 27.3702 16.1197C27.58 15.5427 27.7503 14.9446 27.8749 14.3444C27.8915 14.2665 27.9414 14.2054 28.0058 14.1717C28.0535 14.1485 28.1096 14.1401 28.1657 14.1506C28.2986 14.178 28.3838 14.3107 28.3568 14.4455C28.228 15.0709 28.0514 15.6922 27.8313 16.2924L27.8334 16.2945Z" fill="#2AB678"/>
<path d="M16.5821 23.8654C16.4513 23.8275 16.3744 23.6907 16.4118 23.558C16.4305 23.4864 16.4783 23.4316 16.5385 23.4021C16.5904 23.3748 16.6527 23.3684 16.715 23.3853C18.2125 23.8128 19.8034 23.678 21.2053 23.0062C21.2281 22.9957 21.2489 22.9852 21.2718 22.9746C21.2863 22.9662 21.3008 22.9599 21.3154 22.9536C21.3299 22.9472 21.3444 22.9388 21.359 22.9325C22.8419 22.1786 24.1337 21.1509 25.2012 19.8789C25.2885 19.7736 25.4442 19.7609 25.5481 19.8494C25.6519 19.9378 25.6644 20.0958 25.5772 20.2011C24.4681 21.5257 23.1223 22.5934 21.5812 23.3769C21.5729 23.3811 21.5646 23.3853 21.5563 23.3895C21.5334 23.4021 21.5106 23.4127 21.4878 23.4232C19.9862 24.1645 18.2748 24.3288 16.659 23.8865C16.634 23.8802 16.607 23.8718 16.5821 23.8654Z" fill="#2AB678"/>
<path d="M26.9183 10.7937C26.9329 10.9727 26.9453 11.1517 26.9516 11.3265C26.9723 11.8614 26.9557 12.4027 26.9017 12.9355C26.8872 13.0724 26.7667 13.1735 26.6317 13.1587C26.4967 13.144 26.397 13.0218 26.4116 12.8849C26.4635 12.3753 26.4801 11.8572 26.4593 11.3476C26.4531 11.1791 26.4427 11.0085 26.4261 10.838C26.4178 10.7327 26.4739 10.6358 26.5611 10.5916C26.5881 10.5789 26.6172 10.5684 26.6483 10.5663C26.7833 10.5536 26.9038 10.6547 26.9163 10.7937H26.9183Z" fill="#2AB678"/>
<path d="M25.6633 15.8944C25.8606 15.41 26.0226 14.9067 26.1493 14.397C26.168 14.3233 26.2157 14.2644 26.278 14.2349C26.3279 14.2096 26.3881 14.2012 26.4463 14.2159C26.5792 14.2496 26.6581 14.3844 26.6249 14.5192C26.494 15.052 26.3216 15.5785 26.116 16.086C25.8959 16.6294 25.6321 17.1601 25.331 17.6613C24.98 18.2467 24.575 18.8027 24.1243 19.3123C24.0329 19.4155 23.8771 19.424 23.7774 19.3313C23.6757 19.2386 23.6674 19.0807 23.7588 18.9796C24.1887 18.4931 24.575 17.9624 24.9114 17.4022C25.2001 16.9221 25.4514 16.4145 25.6633 15.8965V15.8944Z" fill="#2AB678"/>
<path d="M15.1615 20.9424C15.1844 20.9129 15.2134 20.8897 15.2446 20.8729C15.3277 20.8308 15.4294 20.8392 15.5063 20.9002C15.9279 21.2372 16.4014 21.4983 16.9123 21.6752C18.1149 22.0943 19.4067 22.0143 20.5448 21.4499H20.5469C20.5469 21.4499 20.5635 21.4394 20.5718 21.4373C20.5802 21.4331 20.5885 21.4288 20.5968 21.4246C20.7172 21.3615 20.8668 21.4078 20.9291 21.532C20.9914 21.6542 20.9457 21.8058 20.8232 21.869C20.8024 21.8795 20.7795 21.89 20.7588 21.9006C20.1232 22.2144 19.4462 22.3934 18.7442 22.4313C18.0671 22.4692 17.3963 22.3744 16.7503 22.1491C16.1875 21.9532 15.6662 21.6647 15.1989 21.2941C15.093 21.2098 15.0743 21.0519 15.1574 20.9424H15.1615Z" fill="#2AB678"/>
<path d="M13.2724 16.2461C13.3035 16.0586 13.343 15.8691 13.3949 15.6859C13.4261 15.5743 13.4593 15.4648 13.4967 15.3573C13.5195 15.2921 13.5632 15.2436 13.6192 15.2163C13.6753 15.1889 13.7438 15.1804 13.8103 15.2036C13.9391 15.2499 14.0076 15.391 13.9619 15.5216C13.8726 15.7849 13.8041 16.0565 13.7584 16.3282C13.7563 16.345 13.7522 16.364 13.7501 16.3808C13.7085 16.6483 13.6898 16.9221 13.694 17.1916C13.6982 17.497 13.7314 17.8024 13.7937 18.1014C13.8602 18.4236 13.9598 18.7395 14.0907 19.0428C14.1218 19.1144 14.1551 19.186 14.1883 19.2555C14.315 19.5124 14.4645 19.7609 14.6328 19.9905C14.7138 20.1021 14.6909 20.2579 14.5808 20.3401C14.4708 20.4222 14.3171 20.399 14.2361 20.2874C14.0512 20.0347 13.8851 19.7609 13.7459 19.4766C13.7085 19.4008 13.6712 19.3208 13.6379 19.2429C13.4946 18.908 13.3825 18.5584 13.3098 18.2046C13.2412 17.874 13.2039 17.537 13.1997 17.2001C13.1955 16.8821 13.2184 16.562 13.2703 16.2461H13.2724Z" fill="#2AB678"/>
<path d="M16.8605 11.3813C16.8605 11.3813 16.8605 11.3855 16.8626 11.3876C16.8647 11.3939 16.8668 11.3981 16.8689 11.4045C16.8689 11.4066 16.8689 11.4087 16.8709 11.4129C16.8709 11.4192 16.8751 11.4234 16.8772 11.4297C16.8772 11.4318 16.8772 11.436 16.8792 11.4382C16.8792 11.4445 16.8834 11.4487 16.8855 11.455C16.8855 11.4571 16.8855 11.4613 16.8875 11.4634C16.8875 11.4697 16.8917 11.474 16.8938 11.4803C16.8938 11.4824 16.8938 11.4866 16.8959 11.4887C16.8959 11.495 16.9 11.4992 16.9 11.5055C16.9 11.5098 16.9 11.5119 16.9021 11.5161C16.9021 11.5203 16.9042 11.5266 16.9062 11.5308C16.9062 11.535 16.9062 11.5371 16.9083 11.5413C16.9083 11.5456 16.9104 11.5519 16.9125 11.5561C16.9125 11.5603 16.9125 11.5624 16.9145 11.5666C16.9145 11.5708 16.9166 11.5771 16.9187 11.5814C16.9187 11.5856 16.9187 11.5877 16.9208 11.5919C16.9208 11.5961 16.9208 11.6003 16.9229 11.6066C16.9229 11.6108 16.9229 11.6151 16.9229 11.6193C16.9229 11.6235 16.9229 11.6277 16.9249 11.6319C16.9249 11.6361 16.9249 11.6403 16.9249 11.6445C16.9249 11.6487 16.9249 11.653 16.9249 11.6572C16.9249 11.6614 16.9249 11.6656 16.9249 11.6698C16.9249 11.674 16.9249 11.6782 16.9249 11.6824C16.9249 11.6867 16.9249 11.6909 16.9249 11.6951C16.9249 11.6993 16.9249 11.7035 16.9249 11.7077C16.9249 11.7119 16.9249 11.7161 16.9249 11.7204C16.9249 11.7246 16.9249 11.7288 16.9249 11.733C16.9249 11.7372 16.9249 11.7414 16.9249 11.7456C16.9249 11.7498 16.9249 11.754 16.9249 11.7583C16.9249 11.7625 16.9249 11.7667 16.9249 11.773C16.9249 11.7772 16.9249 11.7814 16.9249 11.7835C16.9249 11.7877 16.9249 11.7941 16.9249 11.7983C16.9249 11.8025 16.9249 11.8067 16.9249 11.8088C16.9249 11.813 16.9249 11.8193 16.9249 11.8235C16.9249 11.8278 16.9249 11.8299 16.9249 11.8341C16.9249 11.8404 16.9249 11.8446 16.9249 11.8509C16.9249 11.8551 16.9249 11.8572 16.9249 11.8615C16.9249 11.8678 16.9249 11.872 16.9249 11.8783C16.9249 11.8804 16.9249 11.8846 16.9249 11.8867C16.9249 11.893 16.9249 11.8994 16.9249 11.9057C16.9249 11.9078 16.9249 11.9099 16.9249 11.912C16.9249 11.9183 16.9249 11.9246 16.9229 11.9309C16.9229 11.9309 16.9229 11.9352 16.9229 11.9373C16.9229 11.9436 16.9229 11.952 16.9208 11.9583C16.9208 11.9583 16.9208 11.9604 16.9208 11.9625C16.9208 11.9689 16.9187 11.9773 16.9166 11.9836C16.9166 11.9836 16.9166 11.9857 16.9166 11.9878C16.9166 11.9962 16.9145 12.0026 16.9125 12.011C16.9021 12.0699 16.8855 12.1268 16.8647 12.1837C16.8128 12.3227 16.7359 12.4469 16.6383 12.5522C16.5511 12.6449 16.4493 12.7228 16.333 12.7818C15.9488 12.9755 15.5957 13.2177 15.2779 13.5041C15.0744 13.6873 14.8854 13.8916 14.7172 14.1085C14.632 14.2159 14.4783 14.2349 14.3703 14.1506C14.3641 14.1443 14.3579 14.1401 14.3516 14.1338C14.3309 14.1127 14.3143 14.0896 14.3018 14.0643C14.2644 13.9843 14.2686 13.8874 14.3226 13.8095C14.3246 13.8053 14.3267 13.8031 14.3309 13.7989C14.5178 13.561 14.7255 13.3356 14.9498 13.1335C15.2987 12.8176 15.6913 12.5501 16.1129 12.3374C16.3891 12.1984 16.5137 11.8636 16.3953 11.5771C16.3912 11.5645 16.3849 11.5519 16.3787 11.5371C16.2354 11.2423 15.8802 11.1223 15.5895 11.2676C15.1409 11.4929 14.7213 11.7688 14.3413 12.0889C14.2374 12.1773 14.0817 12.1626 13.9944 12.0552C13.9072 11.9499 13.9217 11.792 14.0277 11.7035C14.4368 11.3581 14.8896 11.0612 15.3714 10.819C15.9052 10.5494 16.5552 10.7727 16.8211 11.3139C16.8315 11.3371 16.8419 11.3602 16.8522 11.3834L16.8605 11.3813Z" fill="#2AB678"/>
<path d="M26.9771 16.1871C26.9273 16.3156 26.786 16.3787 26.6573 16.3303C26.5306 16.2798 26.4683 16.1366 26.516 16.006C26.7196 15.4753 26.8857 14.9256 27.0104 14.3697C27.1308 13.8305 27.216 13.2788 27.2596 12.7312C27.2679 12.6407 27.3219 12.5648 27.3967 12.5269C27.4361 12.508 27.4797 12.4975 27.5254 12.5017C27.6604 12.5122 27.7622 12.6343 27.7497 12.7712C27.704 13.3441 27.6147 13.919 27.4901 14.4813C27.3593 15.0604 27.1869 15.6353 26.973 16.1871H26.9771Z" fill="#2AB678"/>
<path d="M26.1551 17.9203C25.7813 18.5689 25.3451 19.186 24.8571 19.7546C23.8331 20.9466 22.6036 21.9111 21.1996 22.6229L21.1311 22.6566C19.7375 23.3453 18.1528 23.4695 16.6678 23.0062C16.0365 22.8083 15.4466 22.5113 14.9108 22.1238C14.4933 21.8206 14.1153 21.4646 13.7851 21.0666C13.5047 20.7255 13.2596 20.3527 13.0561 19.9568C13.0374 19.9189 13.0187 19.8852 13.0021 19.8494C12.9419 19.7251 12.9917 19.5756 13.1143 19.5145C13.2368 19.4535 13.3843 19.504 13.4445 19.6282C13.4611 19.6598 13.4756 19.6914 13.4943 19.7272C13.6813 20.0916 13.9056 20.4348 14.1652 20.7465C14.4663 21.113 14.8152 21.4394 15.1974 21.7174C15.6896 22.0733 16.2338 22.347 16.8132 22.5282C18.1777 22.9557 19.6357 22.8398 20.9151 22.2081L20.9816 22.1744C22.3253 21.492 23.505 20.5675 24.4853 19.424C24.9526 18.8806 25.3701 18.2889 25.7294 17.6655C25.7979 17.5455 25.9495 17.5054 26.0658 17.5749C26.1842 17.6444 26.2237 17.7982 26.1551 17.9161V17.9203Z" fill="#2AB678"/>
<path d="M13.087 18.7058C13.1244 18.8385 13.0496 18.9775 12.9209 19.0154C12.79 19.0533 12.653 18.9775 12.6156 18.8469C12.5138 18.4931 12.4411 18.1267 12.4037 17.7603C12.3684 17.4149 12.3622 17.0632 12.383 16.7178C12.3892 16.6251 12.4432 16.5493 12.52 16.5093C12.5574 16.4904 12.601 16.4819 12.6446 16.4841C12.7796 16.4925 12.8835 16.6125 12.8752 16.7494C12.8544 17.0674 12.8606 17.3896 12.8939 17.7055C12.9292 18.0425 12.9936 18.3794 13.0891 18.7037L13.087 18.7058Z" fill="#2AB678"/>
<path d="M12.8026 14.8203C12.8254 14.7614 12.869 14.715 12.9209 14.6898C12.9812 14.6603 13.0539 14.654 13.1224 14.6813C13.2491 14.7319 13.3114 14.8772 13.2595 15.0057C13.1535 15.2773 13.0663 15.5595 13.0019 15.8459C12.9708 15.9807 12.8399 16.065 12.707 16.0334C12.5741 16.0018 12.491 15.8691 12.5222 15.7343C12.5928 15.4226 12.6862 15.1152 12.8026 14.8203Z" fill="#2AB678"/>
<path d="M15.0014 12.0215C15.2402 11.8551 15.4915 11.7056 15.7512 11.575C15.8737 11.514 16.0212 11.5645 16.0814 11.6888C16.1416 11.813 16.0918 11.9625 15.9692 12.0236C15.7304 12.1437 15.4978 12.2827 15.2797 12.4343C15.0596 12.588 14.8477 12.7586 14.6525 12.9439C14.4552 13.1292 14.2683 13.3335 14.0979 13.5462C13.9276 13.7631 13.7698 13.9948 13.6306 14.2349C13.5621 14.3549 13.4105 14.3949 13.2942 14.3233C13.1758 14.2538 13.1363 14.1001 13.207 13.9822C13.3586 13.7189 13.531 13.4662 13.7158 13.2324C13.9006 12.9987 14.1021 12.7797 14.3181 12.5754C14.532 12.3753 14.7605 12.1879 15.0014 12.0215Z" fill="#2AB678"/>
</svg>
