<svg width="37" height="38" viewBox="0 0 37 38" fill="none" xmlns="http://www.w3.org/2000/svg">
<g clip-path="url(#clip0_368_2080)">
<path d="M37 19.2401C37 29.6014 28.7173 38 18.501 38C8.28476 38 0 29.6014 0 19.2401C0 11.7934 4.27842 5.35967 10.48 2.3313V8.1248C7.10923 10.6309 4.92018 14.6765 4.92018 19.2401C4.92018 26.8468 11.0013 33.0131 18.501 33.0131C26.0007 33.0131 32.0819 26.8468 32.0819 19.2401C32.0819 14.6765 29.8928 10.6309 26.522 8.1248V2.3313C32.7216 5.35967 37 11.7934 37 19.2401Z" fill="#808285"/>
<path d="M19.3204 18.8842C19.0836 19.0505 18.8302 19.2001 18.5706 19.3306C18.4481 19.3917 18.3006 19.3412 18.2404 19.2169C18.1802 19.0927 18.23 18.9431 18.3525 18.8821C18.5914 18.762 18.824 18.623 19.0421 18.4714C19.2622 18.3177 19.4741 18.1471 19.6693 17.9618C19.688 17.9449 19.7067 17.9323 19.7274 17.9217C19.823 17.8733 19.9414 17.8923 20.0182 17.9765C20.1117 18.0776 20.1054 18.2355 20.0058 18.3303C19.7918 18.5304 19.5634 18.7178 19.3225 18.8842H19.3204Z" fill="#2AB678"/>
<path d="M19.4611 21.1586C19.5837 21.0975 19.7311 21.1481 19.7914 21.2723C19.8516 21.3966 19.8017 21.5461 19.6792 21.6072C18.8484 22.0263 17.8702 21.9905 17.0665 21.5145C16.7155 21.306 16.4205 21.0301 16.1921 20.6911C16.1152 20.5774 16.1422 20.4215 16.2544 20.3436C16.2648 20.3373 16.2752 20.331 16.2855 20.3247C16.3935 20.2699 16.5265 20.3036 16.5971 20.4068C16.7861 20.6848 17.027 20.9101 17.3136 21.0807C17.9741 21.4724 18.7758 21.4998 19.4591 21.1565L19.4611 21.1586Z" fill="#2AB678"/>
<path d="M17.4574 17.0562C16.9984 17.2857 16.6411 17.6564 16.4231 18.126C16.3088 18.3703 16.2382 18.6315 16.2133 18.901C16.1905 19.1579 16.2091 19.4128 16.2694 19.6634C16.3026 19.7982 16.2216 19.9329 16.0908 19.9666C15.9578 20.0003 15.8249 19.9182 15.7917 19.7855C15.7169 19.4823 15.6941 19.1685 15.7231 18.8568C15.7522 18.5283 15.8395 18.2124 15.9786 17.9133C16.1074 17.6353 16.2798 17.3847 16.4895 17.1657C16.7055 16.9383 16.9589 16.7529 17.2393 16.6118C17.3618 16.5508 17.5093 16.6013 17.5695 16.7256C17.6297 16.8498 17.5799 16.9993 17.4574 17.0604V17.0562Z" fill="#2AB678"/>
<path d="M20.6027 17.6732C20.5175 17.7806 20.3618 17.7975 20.2558 17.7111C20.1499 17.6248 20.1333 17.4669 20.2184 17.3594C20.3908 17.1425 20.5466 16.9109 20.6858 16.6708C20.7107 16.6266 20.7481 16.595 20.7896 16.5739C20.8623 16.5381 20.9495 16.5381 21.0243 16.5823C21.1427 16.6518 21.1821 16.8056 21.1136 16.9235C20.962 17.1868 20.7917 17.4395 20.6048 17.6732H20.6027Z" fill="#2AB678"/>
<path d="M16.1809 21.5988C16.0812 21.6935 15.9255 21.6872 15.832 21.5861C15.5973 21.3292 15.3979 21.0386 15.2443 20.7227C15.2339 20.7016 15.2256 20.6827 15.2152 20.6637C15.076 20.3647 14.9763 20.0488 14.9223 19.7244C14.8704 19.4212 14.8579 19.1095 14.8849 18.802C14.9099 18.4988 14.9743 18.1997 15.0719 17.9112C15.1778 17.6016 15.3253 17.3089 15.508 17.0393C15.5329 17.0035 15.5641 16.9762 15.6015 16.9572C15.6783 16.9172 15.7739 16.9214 15.8507 16.9762C15.9629 17.0541 15.9899 17.2099 15.913 17.3237C15.7552 17.5553 15.6285 17.808 15.5371 18.0755C15.4519 18.324 15.3979 18.583 15.3751 18.8442C15.3523 19.1095 15.3626 19.377 15.4083 19.6402C15.4561 19.9203 15.5413 20.192 15.6617 20.451C15.67 20.4679 15.6783 20.4847 15.6866 20.5015C15.8196 20.7753 15.9899 21.0238 16.1934 21.245C16.2869 21.346 16.2806 21.504 16.1809 21.5988Z" fill="#2AB678"/>
<path d="M11.6325 20.2973C11.6138 20.1857 11.6699 20.0783 11.7654 20.0319C11.7862 20.0214 11.809 20.013 11.8339 20.0088C11.9689 19.9856 12.0956 20.0761 12.1185 20.213C12.1808 20.5837 12.2763 20.9501 12.4009 21.3039C12.4861 21.5419 12.5837 21.7778 12.6959 22.0073C12.7623 22.1442 12.835 22.2811 12.9119 22.4117C13.1382 22.8034 13.4062 23.1719 13.7073 23.5047C13.7987 23.6057 13.7925 23.7637 13.6907 23.8585C13.591 23.9511 13.4352 23.9448 13.3418 23.8416C13.0178 23.4815 12.7291 23.0856 12.4861 22.6644C12.4051 22.5233 12.3262 22.378 12.2535 22.2284C12.133 21.982 12.0271 21.7293 11.9357 21.4724C11.8007 21.0912 11.6989 20.6953 11.6304 20.2973H11.6325Z" fill="#2AB678"/>
<path d="M11.8406 17.052C11.8613 16.9846 11.9091 16.9298 11.9673 16.9025C12.0213 16.8751 12.0857 16.8688 12.148 16.8877C12.2788 16.9277 12.3515 17.0688 12.312 17.1994C12.2186 17.5111 12.1459 17.8312 12.0981 18.1513C12.0483 18.484 12.0254 18.8231 12.0275 19.1601C12.0275 19.2969 11.9195 19.4107 11.7824 19.4107C11.6474 19.4107 11.5353 19.3012 11.5353 19.1622C11.5332 18.7999 11.5581 18.4356 11.6121 18.0776C11.664 17.7322 11.7409 17.3889 11.8406 17.0541V17.052Z" fill="#2AB678"/>
<path d="M13.2978 14.4237C13.3186 14.3985 13.3456 14.3795 13.3726 14.3669C13.4598 14.3227 13.5678 14.3353 13.6467 14.4048C13.7485 14.4974 13.7568 14.6554 13.6675 14.7565C13.4639 14.9881 13.2749 15.2366 13.1046 15.4957C12.9364 15.7547 12.7827 16.0285 12.6519 16.3107C12.5937 16.4349 12.4463 16.4876 12.3237 16.4286C12.2012 16.3696 12.1493 16.2201 12.2074 16.0959C12.3486 15.7926 12.5127 15.4957 12.6955 15.2177C12.8783 14.9397 13.0818 14.6701 13.3019 14.4216L13.2978 14.4237Z" fill="#2AB678"/>
<path d="M16.627 26.2361C17.7194 26.5246 18.8762 26.5541 19.9728 26.3161C20.1058 26.2866 20.2366 26.373 20.2657 26.5078C20.2948 26.6425 20.2096 26.7752 20.0767 26.8047C19.4848 26.9332 18.8783 26.9879 18.2719 26.9732C17.6758 26.9584 17.0818 26.8721 16.5044 26.7184C15.738 26.5162 15.0111 26.1982 14.3424 25.7749C14.2261 25.7012 14.1928 25.5474 14.2634 25.4316C14.2884 25.3916 14.3237 25.36 14.3631 25.3411C14.4379 25.3031 14.5272 25.3053 14.604 25.3537C15.2313 25.7496 15.9125 26.0487 16.629 26.2382L16.627 26.2361Z" fill="#2AB678"/>
<path d="M13.258 24.2586C13.3536 24.3576 13.3515 24.5155 13.2539 24.6124C13.1563 24.7093 13.0005 24.7072 12.9049 24.6082C12.5394 24.2291 12.2092 23.8079 11.9247 23.3593C11.773 23.1172 11.6297 22.8644 11.503 22.6054C11.42 22.4369 11.3431 22.2621 11.2725 22.0873C11.2227 21.9652 11.2767 21.8262 11.3909 21.7693C11.3971 21.7672 11.4013 21.7651 11.4075 21.7609C11.5342 21.7083 11.6775 21.7693 11.7294 21.8978C11.7959 22.06 11.8686 22.2242 11.9454 22.3822C12.0638 22.6244 12.1967 22.8623 12.34 23.0898C12.6059 23.511 12.9153 23.9027 13.258 24.2586Z" fill="#2AB678"/>
<path d="M10.8684 18.1955C10.9079 18.1766 10.9536 18.166 11.0014 18.1702C11.1364 18.1829 11.2361 18.305 11.2236 18.4419C11.1904 18.8126 11.1841 19.1874 11.2049 19.5581C11.2278 19.9456 11.2818 20.3352 11.3648 20.7143C11.3939 20.849 11.3108 20.9817 11.1779 21.0133C11.045 21.0428 10.9141 20.9585 10.883 20.8238C10.7937 20.4194 10.7355 20.0045 10.7127 19.5876C10.6898 19.1916 10.6961 18.7915 10.7314 18.3956C10.7397 18.305 10.7937 18.2313 10.8664 18.1955H10.8684Z" fill="#2AB678"/>
<path d="M11.717 16.3675C11.5882 16.694 11.4802 17.033 11.3992 17.3763C11.3681 17.5111 11.2331 17.5932 11.1022 17.5595C10.9693 17.5279 10.8883 17.391 10.9215 17.2584C11.0087 16.8919 11.123 16.5297 11.2621 16.1822C11.3992 15.8347 11.5612 15.4936 11.746 15.1692C11.771 15.125 11.8084 15.0913 11.8499 15.0703C11.9205 15.0345 12.0077 15.0345 12.0825 15.0766C12.2009 15.1461 12.2403 15.2977 12.1739 15.4178C12.0015 15.721 11.8478 16.0411 11.7211 16.3654L11.717 16.3675Z" fill="#2AB678"/>
<path d="M21.0565 15.9021C21.1645 15.6305 21.2497 15.3461 21.3141 15.0618C21.3805 14.7649 21.4241 14.4616 21.4449 14.1584C21.4657 13.8404 21.4595 13.5182 21.4262 13.2002C21.3909 12.8632 21.3265 12.5263 21.231 12.2019C21.1978 12.084 21.2518 11.9598 21.3577 11.9071C21.3701 11.9008 21.3847 11.8945 21.3971 11.8903C21.528 11.8524 21.6651 11.9282 21.7025 12.0587C21.8042 12.4125 21.8769 12.779 21.9143 13.1454C21.9496 13.4908 21.9558 13.8404 21.9351 14.1879C21.9143 14.5164 21.8665 14.847 21.7938 15.1714C21.7232 15.483 21.6298 15.7905 21.5135 16.0853C21.4636 16.2138 21.3203 16.2749 21.1936 16.2243C21.0669 16.1738 21.0067 16.0285 21.0565 15.9V15.9021Z" fill="#2AB678"/>
<path d="M10.8322 15.0976C11.0274 14.7144 11.2538 14.3416 11.503 13.992C11.7813 13.6024 12.0929 13.2339 12.4293 12.8969C12.448 12.878 12.4709 12.8632 12.4937 12.8506C12.5872 12.8043 12.7014 12.8211 12.7783 12.899C12.8738 12.998 12.8717 13.1559 12.7762 13.2528C12.4584 13.5708 12.1635 13.9183 11.9018 14.2847C11.6671 14.6154 11.4553 14.965 11.2704 15.3272C11.0939 15.6747 10.9381 16.039 10.8114 16.4118C10.7678 16.5423 10.6266 16.6118 10.4978 16.5655C10.3691 16.5192 10.3005 16.3781 10.3462 16.2475C10.4812 15.8537 10.6453 15.4683 10.8322 15.0976Z" fill="#2AB678"/>
<path d="M10.0111 18.4925C10.0484 18.4735 10.0879 18.4651 10.1315 18.4672C10.2665 18.4735 10.3724 18.5914 10.3662 18.7283C10.3475 19.1369 10.3579 19.5475 10.3994 19.954C10.4431 20.3773 10.5178 20.8006 10.6258 21.2134C10.7401 21.6493 10.8896 22.0789 11.0744 22.4917C11.116 22.5843 11.1575 22.6749 11.2011 22.7612C11.3714 23.1108 11.5687 23.4499 11.7847 23.7679C12.088 24.2165 12.4369 24.6356 12.8232 25.0125C13.2739 25.4548 13.7765 25.8423 14.3165 26.1687C15.0102 26.5857 15.7579 26.8953 16.5429 27.0911C18.3727 27.5439 20.3104 27.3354 22.0031 26.5014C22.0135 26.4972 22.0239 26.4909 22.0322 26.4867C22.0509 26.4762 22.0716 26.4677 22.0903 26.4572C22.1007 26.453 22.1111 26.4467 22.1215 26.4425C22.244 26.3814 22.3915 26.4319 22.4517 26.5562C22.5119 26.6804 22.4621 26.83 22.3396 26.891C22.3292 26.8953 22.3209 26.9016 22.3105 26.9058C22.2897 26.9163 22.2689 26.9268 22.2482 26.9374C22.2378 26.9416 22.2295 26.9479 22.2191 26.9521C21.3053 27.4049 20.3312 27.685 19.326 27.7861C18.354 27.8851 17.3799 27.8156 16.4266 27.5776C15.5938 27.3712 14.8004 27.0427 14.0652 26.6004C13.492 26.255 12.9582 25.8423 12.4805 25.3747C12.0714 24.9746 11.7017 24.5303 11.3797 24.0543C11.1513 23.7152 10.9436 23.3572 10.7608 22.9866C10.7151 22.8939 10.6715 22.797 10.6279 22.7002C10.4327 22.2621 10.2728 21.8051 10.1523 21.3439C10.0381 20.908 9.95707 20.4573 9.91137 20.0088C9.86776 19.5791 9.85737 19.1411 9.87607 18.7094C9.88022 18.6146 9.9363 18.5367 10.0131 18.4967L10.0111 18.4925Z" fill="#2AB678"/>
<path d="M13.6969 27.0721C13.7218 27.0279 13.7592 26.9942 13.8007 26.9711C13.8714 26.9353 13.9586 26.9353 14.0313 26.9774C14.7894 27.4154 15.6056 27.7376 16.4571 27.9377C18.4447 28.4031 20.5465 28.1588 22.3783 27.2533C22.395 27.2448 22.4116 27.2364 22.4303 27.228C22.4469 27.2196 22.4635 27.2111 22.4801 27.2027C24.3805 26.2382 26.0171 24.903 27.3463 23.2351C27.527 23.0076 27.7056 22.7718 27.8738 22.5317C27.8988 22.498 27.9299 22.4706 27.9652 22.4538C28.0441 22.4138 28.1418 22.418 28.2186 22.4748C28.3287 22.5549 28.3557 22.7107 28.2768 22.8223C28.1023 23.0687 27.9195 23.313 27.7326 23.5489C27.0618 24.3913 26.3016 25.162 25.4729 25.8423C24.6214 26.5414 23.691 27.148 22.7044 27.6492C22.6982 27.6513 22.694 27.6555 22.6878 27.6576C22.6816 27.6618 22.6733 27.6639 22.667 27.6681C22.6567 27.6745 22.6442 27.6787 22.6338 27.685C22.6255 27.6892 22.6193 27.6934 22.611 27.6955C22.6047 27.6976 22.6006 27.7018 22.5943 27.7039C21.6099 28.1904 20.5631 28.4979 19.4811 28.6158C18.4343 28.7295 17.3813 28.6664 16.3512 28.4242C15.4519 28.2136 14.592 27.8745 13.7924 27.4133C13.6741 27.3459 13.6325 27.1922 13.7011 27.0721H13.6969Z" fill="#2AB678"/>
<path d="M10.9233 24.3618C11.0293 24.3091 11.1601 24.3386 11.2328 24.4397C11.5734 24.9157 11.9639 25.36 12.3896 25.7601C12.4893 25.8528 12.4955 26.0108 12.4042 26.1139C12.3128 26.215 12.157 26.2213 12.0552 26.1287C11.6046 25.7075 11.1933 25.2379 10.8319 24.7345C10.753 24.6229 10.7759 24.4671 10.8859 24.3849C10.8963 24.3765 10.9088 24.3702 10.9213 24.3639L10.9233 24.3618Z" fill="#2AB678"/>
<path d="M10.0085 23.3572C9.99808 23.3362 9.9877 23.3172 9.97939 23.2962C9.75509 22.8286 9.56609 22.3422 9.4207 21.8473C9.28155 21.3776 9.17771 20.8954 9.11332 20.411C9.05102 19.9456 9.02194 19.4717 9.02817 19.0021C9.02817 18.9052 9.08425 18.821 9.16525 18.781C9.19848 18.7641 9.23794 18.7536 9.2774 18.7557C9.4124 18.7557 9.52247 18.8715 9.5204 19.0084C9.51416 19.4549 9.54116 19.9035 9.60139 20.3436C9.6637 20.8027 9.76132 21.2597 9.89216 21.7041C10.0313 22.1737 10.2078 22.6349 10.4218 23.0771C10.4301 23.0961 10.4405 23.1151 10.4488 23.134C10.509 23.2583 10.4592 23.4078 10.3366 23.4689C10.2141 23.5299 10.0666 23.4794 10.0064 23.3551L10.0085 23.3572Z" fill="#2AB678"/>
<path d="M9.9411 15.0134C10.1446 14.5754 10.3835 14.1521 10.6493 13.7519C10.6742 13.714 10.7075 13.6867 10.7449 13.6677C10.8217 13.6298 10.9152 13.6319 10.992 13.6845C11.1042 13.7625 11.1353 13.9162 11.0585 14.032C10.8072 14.4111 10.5808 14.8133 10.3876 15.2282C10.2049 15.622 10.047 16.0327 9.92033 16.4497C9.79571 16.8603 9.6981 17.2836 9.63164 17.709C9.61087 17.8459 9.48418 17.9386 9.34918 17.9175C9.21418 17.8965 9.1228 17.768 9.14357 17.6311C9.21418 17.1826 9.31595 16.7361 9.44679 16.3023C9.57972 15.8642 9.74587 15.4304 9.93902 15.0155L9.9411 15.0134Z" fill="#2AB678"/>
<path d="M8.76585 17.867C8.70562 18.3366 8.6807 18.8126 8.689 19.2864C8.69731 19.7708 8.74093 20.2573 8.81777 20.7332C8.84062 20.8701 8.74923 20.9986 8.61424 21.0196C8.47924 21.0428 8.35255 20.9501 8.33178 20.8132C8.25078 20.312 8.20509 19.8024 8.19678 19.2927C8.18847 18.7957 8.21547 18.2945 8.27778 17.8017C8.34008 17.3131 8.43562 16.8224 8.56647 16.3465C8.58516 16.2749 8.63293 16.2201 8.69524 16.1885C8.74716 16.1612 8.80946 16.1548 8.8697 16.1717C9.00054 16.2075 9.07738 16.3465 9.04208 16.4792C8.91954 16.934 8.82608 17.3995 8.76793 17.8649L8.76585 17.867Z" fill="#2AB678"/>
<path d="M9.16952 22.1968C9.3149 22.6454 9.49351 23.0877 9.70121 23.511C9.72613 23.5636 9.75313 23.6142 9.77805 23.6647C10.0377 24.1722 10.3409 24.6608 10.6794 25.1115C11.0595 25.6169 11.4873 26.0866 11.9567 26.5078C12.5029 27.0006 13.1073 27.4302 13.7491 27.7882C13.8675 27.8535 13.9132 28.0072 13.8467 28.1272C13.7823 28.2473 13.6307 28.2936 13.5123 28.2262C12.8373 27.8514 12.2018 27.3986 11.6286 26.8805C11.1363 26.4383 10.6857 25.9434 10.2869 25.4127C9.92966 24.9388 9.6119 24.4271 9.33982 23.8921C9.31282 23.8395 9.28583 23.7869 9.25883 23.7321C9.04075 23.2856 8.85175 22.8202 8.70014 22.3506C8.66068 22.2305 8.71675 22.1042 8.82475 22.0494C8.83514 22.0452 8.84552 22.0389 8.85798 22.0368C8.98675 21.9947 9.1259 22.0642 9.16952 22.1968Z" fill="#2AB678"/>
<path d="M16.2145 28.8054C16.2623 28.7801 16.3204 28.7717 16.3765 28.7843C18.5469 29.2666 20.7484 28.9991 22.7443 28.0114C22.763 28.003 22.7796 27.9925 22.7983 27.984C22.817 27.9735 22.8357 27.9651 22.8565 27.9546C23.8534 27.4491 24.7942 26.8363 25.654 26.1329C25.6686 26.1203 25.6831 26.1118 25.6997 26.1034C25.8015 26.0529 25.9261 26.0781 26.0009 26.1708C26.086 26.2782 26.0694 26.4362 25.9635 26.5225C25.0767 27.247 24.1047 27.8787 23.0787 28.401C23.0724 28.4031 23.0683 28.4073 23.0621 28.4094C23.0538 28.4137 23.0454 28.4179 23.0371 28.4221C23.0247 28.4284 23.0143 28.4326 23.0018 28.4389C22.9935 28.4431 22.9852 28.4474 22.9769 28.4516C22.9707 28.4537 22.9665 28.4579 22.9603 28.46C21.9073 28.9823 20.7858 29.3129 19.6289 29.4456C18.5095 29.574 17.3817 29.5151 16.2748 29.2687C16.1418 29.2392 16.0588 29.1065 16.0878 28.9717C16.1044 28.8938 16.1543 28.8348 16.2187 28.8012L16.2145 28.8054Z" fill="#2AB678"/>
<path d="M12.3424 14.4701C12.3424 14.4701 12.3424 14.468 12.3424 14.4659C12.3424 14.4616 12.3403 14.4574 12.3383 14.4553C12.3383 14.4532 12.3383 14.449 12.3362 14.4469C12.3362 14.4448 12.3362 14.4406 12.3341 14.4385C12.3341 14.4364 12.3341 14.4322 12.3341 14.4301V14.4258C12.3341 14.4195 12.3341 14.4153 12.332 14.409C12.332 14.409 12.332 14.4069 12.332 14.4048C12.332 14.4006 12.332 14.3985 12.332 14.3943C12.332 14.3943 12.332 14.3921 12.332 14.39C12.332 14.3858 12.332 14.3795 12.332 14.3753C12.332 14.3732 12.332 14.3711 12.332 14.369C12.332 14.3669 12.332 14.3648 12.332 14.3627C12.332 14.3585 12.332 14.3542 12.332 14.35C12.332 14.35 12.332 14.3479 12.332 14.3458C12.332 14.3416 12.332 14.3353 12.3341 14.3311C12.3341 14.3311 12.3341 14.329 12.3341 14.3269C12.3362 14.3163 12.3383 14.3058 12.3424 14.2953C12.3424 14.289 12.3466 14.2847 12.3486 14.2805C12.3507 14.2763 12.3528 14.27 12.3549 14.2658C12.3549 14.2658 12.3549 14.2658 12.3549 14.2637C12.3549 14.2595 12.359 14.2553 12.3611 14.2532C12.3611 14.2532 12.3611 14.251 12.3632 14.2489C12.3653 14.2447 12.3673 14.2426 12.3694 14.2384C12.3694 14.2363 12.3736 14.2342 12.3736 14.2321C12.3736 14.2321 12.3756 14.2279 12.3777 14.2258C12.3777 14.2258 12.3777 14.2237 12.3798 14.2216C12.386 14.2131 12.3943 14.2047 12.4006 14.1963C12.4089 14.1858 12.4172 14.1752 12.4255 14.1647C12.4338 14.1542 12.44 14.1458 12.4483 14.1352C12.4566 14.1247 12.465 14.1142 12.4733 14.1036C12.4816 14.0931 12.4899 14.0847 12.4961 14.0741C12.5044 14.0636 12.5127 14.0531 12.521 14.0447C12.5293 14.0341 12.5376 14.0257 12.546 14.0152C12.5543 14.0047 12.5626 13.9962 12.5709 13.9857C12.5792 13.9752 12.5875 13.9646 12.5958 13.9562C12.6041 13.9478 12.6124 13.9373 12.6207 13.9288C12.629 13.9183 12.6373 13.9078 12.6477 13.8994C12.656 13.8909 12.6643 13.8804 12.6726 13.872C12.681 13.8614 12.6913 13.8509 12.6996 13.8404C12.708 13.832 12.7163 13.8235 12.7225 13.813C12.7329 13.8025 12.7412 13.7919 12.7516 13.7814C12.7599 13.773 12.7682 13.7646 12.7744 13.7561C12.7827 13.7456 12.7931 13.7351 12.8035 13.7267C12.8118 13.7182 12.8201 13.7098 12.8284 13.7014C12.8388 13.6909 12.8471 13.6803 12.8575 13.6719C12.8658 13.6635 12.8741 13.6551 12.8824 13.6466C12.8928 13.6361 12.9011 13.6256 12.9115 13.615C12.9198 13.6066 12.9281 13.5982 12.9343 13.5898C12.9447 13.5792 12.9551 13.5687 12.9655 13.5582C12.9738 13.5498 12.9821 13.5413 12.9883 13.535C12.9987 13.5245 13.0091 13.514 13.0195 13.5034C13.0278 13.495 13.034 13.4887 13.0423 13.4803C13.0527 13.4697 13.0631 13.4592 13.0735 13.4487C13.0818 13.4403 13.088 13.4339 13.0963 13.4255C13.1067 13.415 13.1192 13.4045 13.1296 13.3939C13.1379 13.3876 13.1441 13.3792 13.1524 13.3729C13.1711 13.356 13.1898 13.3371 13.2085 13.3202C13.7402 12.8253 14.3383 12.4083 14.9884 12.0777C14.9967 12.0735 15.0029 12.0693 15.0112 12.0672C15.0195 12.063 15.0278 12.0587 15.0362 12.0545C15.1587 11.9977 15.3062 12.0503 15.3622 12.1767C15.4183 12.2988 15.3685 12.442 15.2542 12.5031C15.2501 12.5031 15.2459 12.5073 15.2438 12.5094C15.2397 12.5094 15.2355 12.5136 15.2314 12.5157C15.2272 12.5178 15.2231 12.5199 15.2189 12.5221H15.2127C15.1358 12.5642 15.0611 12.6042 14.9863 12.6442C14.4629 12.9327 13.979 13.2823 13.5449 13.6888C13.4037 13.8193 13.2687 13.9562 13.1379 14.0994C13.007 14.2405 12.8824 14.3879 12.7661 14.5396L12.7308 14.5838L12.683 14.607C12.683 14.607 12.6623 14.6154 12.6519 14.6196C12.6166 14.6322 12.5792 14.6364 12.5418 14.6322C12.5397 14.6322 12.5356 14.6322 12.5335 14.6322C12.5335 14.6322 12.5314 14.6322 12.5293 14.6322C12.5273 14.6322 12.5252 14.6322 12.5231 14.6322H12.519C12.519 14.6322 12.5148 14.6322 12.5127 14.6322C12.5106 14.6322 12.5086 14.6322 12.5065 14.6322C12.5065 14.6322 12.5044 14.6322 12.5023 14.6322C12.5003 14.6322 12.4982 14.6322 12.494 14.6301C12.494 14.6301 12.492 14.6301 12.4899 14.6301C12.4878 14.6301 12.4857 14.6301 12.4816 14.628H12.4774C12.4774 14.628 12.4733 14.628 12.4712 14.6259C12.467 14.6259 12.465 14.6238 12.4608 14.6217C12.4317 14.607 12.4047 14.5859 12.384 14.5585C12.3819 14.5564 12.3798 14.5522 12.3777 14.5501C12.3777 14.5501 12.3777 14.5501 12.3777 14.548C12.3777 14.5459 12.3736 14.5438 12.3736 14.5417C12.3736 14.5417 12.3736 14.5396 12.3715 14.5375C12.3715 14.5375 12.3694 14.5332 12.3673 14.5311C12.3673 14.529 12.3653 14.5269 12.3632 14.5248C12.3632 14.5248 12.3632 14.5227 12.3611 14.5206C12.3611 14.5185 12.359 14.5143 12.357 14.5122C12.357 14.5122 12.357 14.5122 12.357 14.5101C12.3549 14.5059 12.3528 14.4996 12.3507 14.4953L12.3424 14.4701Z" fill="#2AB678"/>
<path d="M16.7551 12.3494C16.7779 12.322 16.8049 12.303 16.834 12.2883C16.9192 12.2462 17.0251 12.2546 17.104 12.322C17.3013 12.4926 17.4612 12.699 17.5776 12.9369C17.6191 13.0191 17.6523 13.1054 17.6814 13.1939C17.7832 13.5076 17.8039 13.8467 17.7416 14.171C17.7146 14.3058 17.5859 14.3943 17.4529 14.369C17.32 14.3416 17.2328 14.211 17.2577 14.0763C17.3034 13.8341 17.2889 13.5835 17.2141 13.3518C17.1933 13.2865 17.1663 13.2233 17.1373 13.1602C17.05 12.9833 16.9316 12.8295 16.7863 12.7032C16.6824 12.6147 16.6699 12.4568 16.7572 12.3515L16.7551 12.3494Z" fill="#2AB678"/>
<path d="M14.0664 18.5978C14.0996 18.2987 14.164 18.0039 14.2554 17.7175C14.3468 17.4332 14.4672 17.1552 14.6126 16.894C14.7684 16.616 14.9532 16.3549 15.163 16.1169C15.5389 15.6915 15.9855 15.3462 16.4922 15.0913C16.6148 15.0303 16.7622 15.0808 16.8225 15.205C16.8827 15.3293 16.8328 15.4788 16.7103 15.5399C16.2596 15.7673 15.8629 16.0727 15.5306 16.4518C15.3437 16.6624 15.1796 16.8961 15.0425 17.1425C14.9138 17.3742 14.8058 17.6206 14.7248 17.8754C14.6438 18.1302 14.5856 18.3935 14.5566 18.6588C14.5399 18.7957 14.4195 18.8947 14.2845 18.8779C14.1495 18.861 14.0519 18.7389 14.0685 18.602L14.0664 18.5978Z" fill="#2AB678"/>
<path d="M24.43 19.0611C24.5442 19.1348 24.5775 19.2906 24.5048 19.4064C24.1766 19.9266 23.8028 20.4194 23.3895 20.8722C22.5442 21.8009 21.5452 22.557 20.4195 23.1235C19.8525 23.4078 19.2461 23.5657 18.6168 23.5868C18.0103 23.6078 17.4122 23.5047 16.8452 23.2793C16.3509 23.0835 15.9002 22.8034 15.5076 22.4475C15.1982 22.1674 14.9303 21.8452 14.7101 21.4892C14.6333 21.365 14.5606 21.2344 14.4962 21.0996C14.4027 20.9059 14.3197 20.7058 14.2553 20.5015C14.1535 20.1857 14.087 19.8592 14.0559 19.5286C14.0455 19.4233 14.1037 19.3264 14.1909 19.2822C14.2179 19.2696 14.247 19.2611 14.2781 19.2569C14.4131 19.2443 14.5336 19.3454 14.546 19.4823C14.573 19.775 14.6333 20.0656 14.7226 20.3457C14.7807 20.5268 14.8534 20.7058 14.9365 20.8764C14.9946 20.9943 15.059 21.1123 15.1276 21.2218C15.3228 21.5377 15.5616 21.8241 15.8358 22.0726C16.1847 22.3885 16.5856 22.6391 17.0259 22.8118C18.056 23.2203 19.2149 23.1698 20.2035 22.6728C21.2752 22.1337 22.2264 21.4134 23.0302 20.5289C23.4227 20.0972 23.7799 19.6276 24.0915 19.1327C24.1642 19.0168 24.3179 18.9831 24.4321 19.0569L24.43 19.0611Z" fill="#2AB678"/>
<path d="M25.2774 16.4265C25.3999 15.9716 25.4934 15.5062 25.5515 15.0408C25.6118 14.5712 25.6367 14.0931 25.6284 13.6214C25.6284 13.5224 25.6824 13.4339 25.7655 13.3939C25.7966 13.3771 25.8319 13.3687 25.8714 13.3687C26.0064 13.3665 26.1185 13.4761 26.1227 13.615C26.131 14.1121 26.104 14.6133 26.0417 15.1061C25.9794 15.5947 25.8838 16.0853 25.753 16.5613C25.6201 17.0478 25.4518 17.5279 25.2525 17.9891C25.1985 18.1155 25.0531 18.1724 24.9285 18.1176C24.8039 18.0628 24.7478 17.9154 24.8018 17.7891C24.9908 17.351 25.1528 16.8919 25.2774 16.4307V16.4265Z" fill="#2AB678"/>
<path d="M25.9898 12.0945C26.0126 12.2314 25.9212 12.3599 25.7862 12.381C25.6512 12.4041 25.5245 12.3115 25.5038 12.1746C25.4768 12.0082 25.4456 11.8397 25.4082 11.6755C25.3833 11.5617 25.4394 11.448 25.5391 11.3975C25.5578 11.389 25.5765 11.3806 25.5952 11.3764C25.7281 11.3469 25.8589 11.4333 25.888 11.5681C25.9254 11.7407 25.9586 11.9176 25.9877 12.0924L25.9898 12.0945Z" fill="#2AB678"/>
<path d="M18.3243 12.56C18.9993 13.9373 18.4406 15.6157 17.0823 16.298C16.9598 16.3591 16.8123 16.3086 16.7521 16.1843C16.6919 16.0601 16.7417 15.9106 16.8643 15.8495C17.9796 15.2893 18.4365 13.912 17.884 12.7811C17.8238 12.6568 17.8736 12.5073 17.9962 12.4462C18.1187 12.3852 18.2662 12.4357 18.3264 12.56H18.3243Z" fill="#2AB678"/>
<path d="M14.6395 11.3006C15.4703 10.8815 16.4485 10.9173 17.2523 11.3933C17.3706 11.4628 17.4101 11.6165 17.3416 11.7344C17.273 11.8545 17.1214 11.8945 17.0051 11.825C16.3447 11.4333 15.543 11.4059 14.8597 11.7492C14.7371 11.8102 14.5897 11.7597 14.5294 11.6354C14.4692 11.5112 14.5191 11.3617 14.6416 11.3006H14.6395Z" fill="#2AB678"/>
<path d="M18.4686 15.9316C18.3565 15.8537 18.3295 15.6978 18.4063 15.5841C18.5642 15.3525 18.6909 15.0998 18.7822 14.8323C18.8674 14.5838 18.9214 14.3248 18.9442 14.0636C18.9671 13.7983 18.9567 13.5308 18.911 13.2676C18.8632 12.9875 18.7781 12.7158 18.6576 12.4568C18.6493 12.4399 18.641 12.4231 18.6327 12.4062C18.5019 12.1409 18.3378 11.8966 18.1405 11.6797L18.1259 11.6628C17.8539 11.3659 17.5299 11.1279 17.1623 10.9573C16.3045 10.5551 15.3304 10.5677 14.4872 10.991C13.563 11.4564 12.7364 12.0693 12.0261 12.8169C11.9326 12.9159 11.7769 12.9201 11.6772 12.8232C11.5795 12.7284 11.5754 12.5705 11.6709 12.4694C12.4207 11.6797 13.2951 11.031 14.2691 10.5403C14.2691 10.5403 14.2691 10.5403 14.2712 10.5403C14.7655 10.2918 15.293 10.1655 15.8414 10.1634C16.3647 10.1613 16.8923 10.2771 17.3699 10.5024C17.7376 10.6751 18.0678 10.9047 18.3565 11.1869H18.3606L18.4852 11.3217C18.7199 11.5786 18.9193 11.8692 19.073 12.1851C19.0834 12.2062 19.0917 12.2251 19.1021 12.2441C19.2412 12.5431 19.3409 12.859 19.3949 13.1833C19.4469 13.4866 19.4593 13.7983 19.4323 14.1057C19.4074 14.409 19.343 14.708 19.2454 14.9966C19.1395 15.3061 18.992 15.5989 18.8092 15.8684C18.7324 15.9821 18.5787 16.0095 18.4666 15.9316H18.4686Z" fill="#2AB678"/>
<path d="M19.1535 16.7887C18.7796 17.2141 18.331 17.5595 17.8243 17.8143C17.4255 18.0144 17.1451 18.3872 17.06 18.8336C17.0143 19.0758 17.0288 19.3264 17.1036 19.5581C17.1244 19.6234 17.1514 19.6865 17.1804 19.7497C17.2677 19.9266 17.386 20.0804 17.5314 20.2067C17.9613 20.5774 18.5657 20.6574 19.0725 20.4089C19.0787 20.4068 19.0829 20.4026 19.0891 20.4005C19.0933 20.3984 19.0974 20.3963 19.1036 20.3941H19.1078C19.7163 20.0825 20.2792 19.6908 20.7755 19.2274C20.7922 19.2106 20.8129 19.198 20.8337 19.1874C20.9292 19.139 21.0476 19.1579 21.1245 19.2422C21.2158 19.3433 21.2096 19.5012 21.1099 19.596C20.5803 20.0909 19.9801 20.5079 19.3321 20.8364C19.33 20.8364 19.3279 20.8385 19.3259 20.8406C19.3155 20.8448 19.3072 20.8511 19.2968 20.8554C19.2947 20.8554 19.2906 20.8575 19.2885 20.8596C18.6073 21.1923 17.7931 21.0849 17.2157 20.5858C17.0184 20.4152 16.8585 20.2088 16.7422 19.9708C16.7027 19.8887 16.6674 19.8024 16.6384 19.7139C16.5366 19.4001 16.5158 19.0632 16.5781 18.7368C16.6342 18.4503 16.7526 18.1745 16.925 17.9407C17.1057 17.6964 17.3341 17.5027 17.6062 17.3658C18.0569 17.1383 18.4536 16.833 18.7859 16.4539C18.8066 16.4286 18.8336 16.4097 18.8606 16.397C18.9479 16.3528 19.0579 16.3654 19.1348 16.4349C19.2366 16.5276 19.2449 16.6855 19.1535 16.7866V16.7887Z" fill="#2AB678"/>
<path d="M20.061 15.1882C19.9696 15.4746 19.8491 15.7505 19.7038 16.0116C19.6373 16.1317 19.4857 16.1738 19.3673 16.1064C19.2489 16.039 19.2074 15.8853 19.2738 15.7652C19.4026 15.5336 19.5106 15.2872 19.5916 15.0324C19.6726 14.7775 19.7308 14.5143 19.7598 14.2489C19.7702 14.1626 19.8221 14.091 19.8948 14.0531C19.9364 14.032 19.9841 14.0236 20.0319 14.0278C20.1669 14.0447 20.2645 14.1668 20.2479 14.3037C20.2147 14.6027 20.1503 14.8976 20.0568 15.184L20.061 15.1882Z" fill="#2AB678"/>
<path d="M18.4809 10.831C18.3791 10.7383 18.3708 10.5804 18.4601 10.4793C18.4809 10.454 18.5079 10.435 18.5349 10.4224C18.6221 10.3782 18.7301 10.3908 18.809 10.4603C19.1185 10.7404 19.3864 11.0626 19.6066 11.4185C19.6834 11.5428 19.7561 11.6734 19.8205 11.8081C19.914 12.0019 19.997 12.202 20.0614 12.4062C20.1632 12.7221 20.2317 13.0485 20.2608 13.3792C20.2733 13.5161 20.1736 13.6382 20.0386 13.6509C19.9036 13.6635 19.7831 13.5624 19.7706 13.4255C19.7436 13.1328 19.6834 12.8422 19.5941 12.5621C19.536 12.381 19.4633 12.202 19.3802 12.0314C19.322 11.9134 19.2577 11.7955 19.1891 11.686C18.9939 11.3701 18.755 11.0816 18.4809 10.8352V10.831Z" fill="#2AB678"/>
<path d="M17.4726 9.62636C17.5993 9.6769 17.6616 9.82221 17.6118 9.95067C17.5619 10.0791 17.4186 10.1423 17.2919 10.0918C16.2618 9.68322 15.105 9.73376 14.1163 10.2308C13.0447 10.7699 12.0934 11.4901 11.2897 12.3746C10.8972 12.8064 10.5399 13.276 10.2284 13.7709C9.95839 14.2005 9.71955 14.6554 9.51809 15.1229C9.46409 15.2493 9.31871 15.3061 9.19409 15.2514C9.06948 15.1966 9.0134 15.0492 9.0674 14.9229C9.27925 14.4322 9.53055 13.9541 9.81509 13.5034C10.1432 12.9833 10.5171 12.4905 10.9304 12.0377C11.7757 11.1111 12.7747 10.3529 13.8983 9.78641C13.8983 9.78641 13.8983 9.78641 13.9004 9.78641C14.4673 9.5021 15.0738 9.34416 15.7031 9.3231C16.3096 9.30204 16.9077 9.40523 17.4747 9.63057L17.4726 9.62636Z" fill="#2AB678"/>
<path d="M20.0791 10.6204C20.2639 10.8731 20.4301 11.1469 20.5692 11.4312C20.6066 11.507 20.644 11.587 20.6772 11.6649C20.8205 11.9998 20.9327 12.3494 21.0054 12.7032C21.0739 13.0338 21.1113 13.3708 21.1155 13.7077C21.1196 14.0257 21.0968 14.3458 21.0448 14.6617C20.995 14.9629 20.9202 15.2619 20.8205 15.5525C20.7229 15.8347 20.6025 16.1085 20.4612 16.3696C20.32 16.6287 20.158 16.8793 19.9773 17.1109C19.7904 17.351 19.5827 17.5743 19.3584 17.7764C19.2566 17.8691 19.1009 17.8586 19.0116 17.7575C18.9202 17.6543 18.9306 17.4963 19.0302 17.4058C19.2338 17.2226 19.4228 17.0183 19.591 16.8014C19.7551 16.5908 19.9025 16.3654 20.0292 16.1296C20.158 15.8937 20.266 15.6431 20.3553 15.3883C20.4446 15.1271 20.5132 14.8555 20.5588 14.5817C20.6045 14.2953 20.6274 14.0046 20.6232 13.7182C20.6191 13.4129 20.5858 13.1075 20.5235 12.8085C20.4571 12.4863 20.3574 12.1704 20.2265 11.8671C20.1954 11.7955 20.1622 11.7239 20.1289 11.6544C20.0022 11.3975 19.8527 11.149 19.6845 10.9194C19.4352 10.5782 19.1403 10.2729 18.8101 10.0096C18.3885 9.67268 17.9149 9.41154 17.404 9.23464C17.1278 9.13777 16.8391 9.06827 16.5504 9.02405C16.4154 9.00299 16.322 8.87663 16.3427 8.73974C16.3552 8.6555 16.4071 8.58811 16.4777 8.55231C16.5213 8.53125 16.5712 8.52072 16.6231 8.52915C16.943 8.57758 17.2586 8.6555 17.564 8.7608C18.1268 8.95666 18.6481 9.24517 19.1154 9.61582C19.4789 9.90645 19.8049 10.2434 20.0791 10.6204Z" fill="#2AB678"/>
<path d="M21.1587 11.2837C21.0382 11.3469 20.8887 11.3006 20.8263 11.1784C20.6394 10.8141 20.4151 10.4708 20.1555 10.1592C19.8544 9.79273 19.5054 9.4663 19.1233 9.18831C18.9468 9.05985 18.7598 8.93981 18.5688 8.83451C18.4504 8.76712 18.4068 8.61549 18.4711 8.49545C18.4961 8.44912 18.5334 8.41332 18.5771 8.39226C18.6477 8.35646 18.7328 8.35646 18.8055 8.39647C19.0132 8.5123 19.2147 8.64076 19.4078 8.78186C19.8253 9.08512 20.2033 9.44103 20.5335 9.83906C20.8139 10.1802 21.059 10.553 21.2625 10.9489C21.3248 11.071 21.2791 11.2227 21.1587 11.2859V11.2837Z" fill="#2AB678"/>
<path d="M22.0087 15.7084C22.0295 15.641 22.0772 15.5862 22.1354 15.5567C22.1894 15.5294 22.2538 15.5231 22.3161 15.542C22.4469 15.582 22.5196 15.721 22.4802 15.8537C22.3825 16.178 22.26 16.5002 22.1146 16.8077C21.9734 17.1109 21.8093 17.4079 21.6265 17.6859C21.4438 17.966 21.2402 18.2334 21.0201 18.4819C20.7937 18.741 20.5445 18.9832 20.2807 19.2043C19.8716 19.5475 19.4209 19.8466 18.939 20.0888C18.939 20.0888 18.939 20.0888 18.937 20.0888C18.4032 20.3583 17.7531 20.1351 17.4873 19.5939C17.4769 19.5707 17.4665 19.5475 17.4561 19.5265C17.4561 19.5265 17.4561 19.5265 17.4561 19.5244C17.3523 19.2696 17.3481 18.9853 17.4437 18.7262C17.5392 18.4651 17.7282 18.2524 17.9754 18.1281C18.0979 18.0671 18.2454 18.1176 18.3056 18.2419C18.3658 18.3661 18.316 18.5156 18.1934 18.5767C17.9172 18.7157 17.7926 19.0505 17.911 19.337C17.9151 19.3496 17.9214 19.3622 17.9276 19.3749C18.0709 19.6697 18.426 19.7897 18.7147 19.6444C19.1633 19.4191 19.5829 19.1432 19.9629 18.8231C20.208 18.6167 20.4386 18.3914 20.6483 18.1513C20.8519 17.9196 21.0409 17.6711 21.2112 17.4121C21.3794 17.1531 21.5331 16.8793 21.6639 16.5971C21.7969 16.3107 21.9111 16.0137 22.0025 15.7105L22.0087 15.7084Z" fill="#2AB678"/>
<path d="M22.2365 11.7534C22.1077 11.7997 21.9665 11.7323 21.9208 11.6017C21.8356 11.3638 21.738 11.1279 21.6259 10.8984C21.5594 10.7615 21.4867 10.6246 21.4099 10.494C21.1835 10.1023 20.9156 9.73376 20.6144 9.40102C20.4856 9.25781 20.3465 9.11671 20.2053 8.98614C20.1056 8.89348 20.0973 8.73553 20.1887 8.63234C20.2094 8.60918 20.2343 8.59022 20.2613 8.57759C20.3506 8.53336 20.4607 8.546 20.5376 8.6176C20.6892 8.7587 20.8387 8.90822 20.9779 9.06406C21.3019 9.42418 21.5906 9.8201 21.8336 10.2413C21.9146 10.3824 21.9935 10.5277 22.0662 10.6772C22.1866 10.9236 22.2926 11.1763 22.3839 11.4333C22.4296 11.5638 22.3632 11.707 22.2344 11.7534H22.2365Z" fill="#2AB678"/>
<path d="M22.3357 12.4273C22.3565 12.4168 22.3793 12.4083 22.4043 12.4041C22.5393 12.381 22.6659 12.4715 22.6888 12.6084C22.7511 12.9833 22.7843 13.3644 22.7885 13.7456C22.7906 14.1078 22.7656 14.4722 22.7116 14.8302C22.6909 14.9671 22.5663 15.0597 22.4313 15.0408C22.2963 15.0197 22.2049 14.8934 22.2236 14.7565C22.2734 14.4237 22.2963 14.0847 22.2942 13.7498C22.2921 13.396 22.2609 13.0422 22.2028 12.6947C22.1841 12.5831 22.2402 12.4757 22.3357 12.4294V12.4273Z" fill="#2AB678"/>
<path d="M22.3183 9.8917C22.204 9.96541 22.0524 9.93172 21.9776 9.81589C21.88 9.66215 21.7762 9.51052 21.6703 9.36732C21.5893 9.25781 21.61 9.09986 21.7201 9.01773C21.7326 9.0093 21.745 9.00088 21.7596 8.99246C21.8634 8.93981 21.9943 8.96929 22.0649 9.06616C22.1791 9.2199 22.2892 9.38206 22.393 9.54632C22.4657 9.66215 22.4325 9.81589 22.3183 9.8917Z" fill="#2AB678"/>
<path d="M23.4342 12.084C23.5235 12.4884 23.5817 12.9053 23.6066 13.3202C23.6149 13.4571 23.5111 13.5771 23.3761 13.5835C23.2411 13.5919 23.1227 13.4866 23.1164 13.3497C23.0936 12.9622 23.0396 12.5726 22.9565 12.1935C22.8672 11.7913 22.7447 11.3933 22.5889 11.01C22.5391 10.8878 22.5931 10.7488 22.7073 10.692C22.7135 10.6899 22.7177 10.6878 22.7239 10.6836C22.8506 10.6309 22.9939 10.692 23.0458 10.8204C23.212 11.229 23.3428 11.6544 23.4384 12.084H23.4342Z" fill="#2AB678"/>
<path d="M21.5969 18.7262C21.491 18.6399 21.4723 18.484 21.5575 18.3745C21.7756 18.0944 21.9749 17.7954 22.1515 17.4858C22.3239 17.1826 22.4775 16.8624 22.6042 16.5381C22.733 16.2117 22.841 15.8726 22.922 15.5294C23.0051 15.1798 23.0653 14.8197 23.0965 14.4638C23.1048 14.3732 23.1588 14.2995 23.2315 14.2637C23.2709 14.2447 23.3166 14.2342 23.3623 14.2384C23.4973 14.2511 23.597 14.3732 23.5845 14.5101C23.5492 14.8913 23.4869 15.2746 23.3976 15.6473C23.3104 16.0137 23.1962 16.376 23.0591 16.7235C22.922 17.0709 22.76 17.4121 22.5752 17.7364C22.3862 18.0671 22.1743 18.3872 21.9396 18.6862C21.8545 18.7936 21.7008 18.8126 21.5928 18.7262H21.5969Z" fill="#2AB678"/>
<path d="M24.1702 11.5681C24.2055 11.7007 24.1265 11.8376 23.9957 11.8734C23.8649 11.9092 23.7299 11.8292 23.6945 11.6965C23.5803 11.2606 23.4308 10.831 23.2459 10.4182C23.2044 10.3255 23.1629 10.235 23.1192 10.1486C23.086 10.0812 23.0528 10.0139 23.0175 9.94646C22.9531 9.82432 22.9988 9.67269 23.1192 9.60951C23.1192 9.60951 23.1234 9.6074 23.1255 9.6074C23.2439 9.54843 23.3892 9.59477 23.4516 9.71481C23.4889 9.78641 23.5263 9.85801 23.5595 9.92961C23.6052 10.0223 23.6509 10.1192 23.6925 10.216C23.8877 10.6541 24.0476 11.1111 24.1681 11.5723L24.1702 11.5681Z" fill="#2AB678"/>
<path d="M24.4114 12.9032C24.455 13.3329 24.4654 13.7709 24.4447 14.2026C24.4384 14.3395 24.3221 14.4469 24.1871 14.4406C24.0521 14.4343 23.9462 14.3163 23.9524 14.1794C23.9711 13.773 23.9607 13.3602 23.9192 12.9538C23.9088 12.8464 23.9649 12.7495 24.0542 12.7053C24.0791 12.6926 24.1082 12.6842 24.1394 12.68C24.2744 12.6653 24.3948 12.7663 24.4093 12.9032H24.4114Z" fill="#2AB678"/>
<path d="M24.8985 11.0584C25.0377 11.528 25.1415 12.0103 25.2059 12.4947C25.2682 12.9601 25.2973 13.4339 25.2911 13.9036C25.2848 14.3606 25.2475 14.8218 25.1768 15.2745C25.1561 15.4114 25.0294 15.5041 24.8944 15.483C24.7594 15.462 24.668 15.3335 24.6888 15.1966C24.7552 14.767 24.7926 14.329 24.7968 13.8972C24.803 13.4508 24.776 13.0022 24.7158 12.5621C24.6535 12.103 24.5559 11.6439 24.425 11.2016C24.3772 11.0374 24.3232 10.8731 24.2651 10.713C24.2215 10.593 24.2755 10.4603 24.3876 10.4035C24.3959 10.3992 24.4042 10.395 24.4125 10.3929C24.5413 10.3466 24.6825 10.4119 24.7282 10.5425C24.7885 10.713 24.8445 10.8857 24.8965 11.0584H24.8985Z" fill="#2AB678"/>
<path d="M24.8707 16.6055C24.7377 17.0436 24.5716 17.4774 24.3784 17.8923C24.1749 18.3303 23.9361 18.7536 23.6702 19.1537C23.5934 19.2675 23.4418 19.299 23.3275 19.2211C23.2154 19.1432 23.1842 18.9895 23.2611 18.8736C23.5124 18.4946 23.7388 18.0923 23.9319 17.6775C24.1147 17.2836 24.2725 16.873 24.3992 16.456C24.42 16.3886 24.4677 16.336 24.5259 16.3065C24.5799 16.2791 24.6443 16.2728 24.7087 16.2917C24.8395 16.3317 24.9122 16.4728 24.8707 16.6034V16.6055Z" fill="#2AB678"/>
<path d="M22.3636 20.0403C22.455 19.994 22.5672 20.0088 22.644 20.0846C22.7416 20.1793 22.7458 20.3373 22.6502 20.4384C21.9005 21.2281 21.0282 21.8767 20.052 22.3674C20.052 22.3674 20.052 22.3674 20.05 22.3674C19.5557 22.6159 19.0281 22.7423 18.4798 22.7444C17.9564 22.7465 17.4289 22.6307 16.9512 22.4053C16.8287 22.3485 16.7747 22.199 16.8308 22.0747C16.8557 22.02 16.8972 21.9799 16.945 21.9568C17.0094 21.9252 17.0883 21.921 17.1589 21.9547C18.0167 22.3569 18.9907 22.3443 19.834 21.921C20.7582 21.4556 21.5848 20.8427 22.2951 20.0951C22.3159 20.074 22.3387 20.0572 22.3636 20.0446V20.0403Z" fill="#2AB678"/>
<path d="M27.4532 20.1035C27.5238 20.0677 27.6069 20.0677 27.6816 20.1077C27.8 20.173 27.8436 20.3268 27.7793 20.4468C27.3577 21.226 26.8613 21.9652 26.3026 22.6454C25.7148 23.3593 25.0544 24.0143 24.3399 24.5913C23.6047 25.1852 22.803 25.7033 21.9556 26.1329C21.9473 26.1371 21.939 26.1413 21.9307 26.1455C21.9079 26.1561 21.8871 26.1687 21.8642 26.1792C21.7417 26.2382 21.5943 26.1877 21.5361 26.0634C21.5091 26.0065 21.5049 25.9434 21.5216 25.8844C21.5236 25.876 21.5257 25.8697 21.5299 25.8612C21.5506 25.8107 21.588 25.7644 21.6379 25.7349C21.642 25.7349 21.6462 25.7307 21.6482 25.7286C21.6482 25.7286 21.6483 25.7286 21.6503 25.7286C21.6649 25.7222 21.6773 25.7159 21.6919 25.7075C21.7064 25.7012 21.7189 25.6949 21.7334 25.6864C23.3575 24.8609 24.7678 23.73 25.9225 22.3253C26.4604 21.6704 26.9402 20.9564 27.3473 20.2067C27.3722 20.1604 27.4096 20.1246 27.4532 20.1035Z" fill="#2AB678"/>
<path d="M28.3982 17.6753C28.419 17.608 28.4668 17.5532 28.5249 17.5237C28.5789 17.4963 28.6433 17.49 28.7056 17.509C28.8365 17.549 28.9091 17.688 28.8697 17.8207C28.8115 18.0165 28.7471 18.2124 28.6807 18.404C28.635 18.5346 28.4938 18.602 28.3671 18.5556C28.2383 18.5093 28.1718 18.3661 28.2175 18.2376C28.2819 18.0523 28.3442 17.8649 28.4003 17.6753H28.3982Z" fill="#2AB678"/>
<path d="M24.1614 25.7812C24.0492 25.8612 23.8955 25.8339 23.8187 25.7201C23.7398 25.6064 23.7668 25.4506 23.8789 25.3726C24.9091 24.6398 25.8374 23.7679 26.635 22.7802C27.2103 22.0684 27.7191 21.2955 28.149 20.4805C28.2549 20.2804 28.3567 20.0761 28.4522 19.8719C28.4772 19.8192 28.5166 19.7792 28.5644 19.756C28.6288 19.7223 28.7077 19.7202 28.7804 19.756C28.9029 19.815 28.9549 19.9645 28.8967 20.0888C28.797 20.2994 28.6932 20.5121 28.5831 20.7185C28.1386 21.5609 27.6132 22.3611 27.0171 23.0982C26.1905 24.1217 25.2289 25.0252 24.1634 25.7833L24.1614 25.7812Z" fill="#2AB678"/>
<path d="M24.2988 15.4578C24.2199 15.8642 24.1119 16.2686 23.9789 16.6603C23.8439 17.0541 23.6799 17.4395 23.4929 17.8101C23.4306 17.9323 23.2811 17.9807 23.1606 17.9175C23.0402 17.8544 22.9924 17.7027 23.0547 17.5806C23.2312 17.2331 23.387 16.8688 23.5137 16.496C23.6404 16.1275 23.7422 15.7463 23.8149 15.3609C23.8294 15.2809 23.8813 15.2177 23.9478 15.184C23.9955 15.1608 24.0495 15.1524 24.1035 15.1629C24.2365 15.1903 24.3237 15.3209 24.2988 15.4557V15.4578Z" fill="#2AB678"/>
<path d="M22.8185 18.9137C22.5402 19.3033 22.2287 19.6739 21.8922 20.0088C21.7946 20.1056 21.6388 20.1035 21.5433 20.0066C21.4477 19.9077 21.4498 19.7497 21.5454 19.6528C21.8631 19.3348 22.156 18.9895 22.4197 18.6209C22.4447 18.5872 22.4758 18.562 22.509 18.543C22.588 18.503 22.6856 18.5072 22.7624 18.5641C22.8725 18.6441 22.8974 18.7999 22.8185 18.9137Z" fill="#2AB678"/>
<path d="M27.8334 18.2945C27.5966 18.9452 27.3058 19.5791 26.9694 20.1835C26.9029 20.3036 26.7513 20.3457 26.6329 20.2783C26.5145 20.2109 26.473 20.0572 26.5395 19.9372C26.8635 19.358 27.1418 18.7452 27.3702 18.1197C27.58 17.5427 27.7503 16.9446 27.8749 16.3444C27.8915 16.2665 27.9414 16.2054 28.0058 16.1717C28.0535 16.1485 28.1096 16.1401 28.1657 16.1506C28.2986 16.178 28.3838 16.3107 28.3568 16.4455C28.228 17.0709 28.0514 17.6922 27.8313 18.2924L27.8334 18.2945Z" fill="#2AB678"/>
<path d="M16.5821 25.8654C16.4513 25.8275 16.3744 25.6906 16.4118 25.558C16.4305 25.4864 16.4783 25.4316 16.5385 25.4021C16.5904 25.3748 16.6527 25.3684 16.715 25.3853C18.2125 25.8128 19.8034 25.678 21.2053 25.0062C21.2281 24.9957 21.2489 24.9851 21.2718 24.9746C21.2863 24.9662 21.3008 24.9599 21.3154 24.9536C21.3299 24.9472 21.3444 24.9388 21.359 24.9325C22.8419 24.1786 24.1337 23.1509 25.2012 21.8789C25.2885 21.7736 25.4442 21.7609 25.5481 21.8494C25.6519 21.9378 25.6644 22.0958 25.5772 22.2011C24.4681 23.5257 23.1223 24.5934 21.5812 25.3769C21.5729 25.3811 21.5646 25.3853 21.5563 25.3895C21.5334 25.4021 21.5106 25.4127 21.4878 25.4232C19.9862 26.1645 18.2748 26.3288 16.659 25.8865C16.634 25.8802 16.607 25.8718 16.5821 25.8654Z" fill="#2AB678"/>
<path d="M26.9183 12.7937C26.9329 12.9727 26.9453 13.1517 26.9516 13.3265C26.9723 13.8614 26.9557 14.4027 26.9017 14.9355C26.8872 15.0724 26.7667 15.1735 26.6317 15.1587C26.4967 15.144 26.397 15.0218 26.4116 14.8849C26.4635 14.3753 26.4801 13.8572 26.4593 13.3476C26.4531 13.1791 26.4427 13.0085 26.4261 12.838C26.4178 12.7327 26.4739 12.6358 26.5611 12.5916C26.5881 12.5789 26.6172 12.5684 26.6483 12.5663C26.7833 12.5536 26.9038 12.6547 26.9163 12.7937H26.9183Z" fill="#2AB678"/>
<path d="M25.6633 17.8944C25.8606 17.41 26.0226 16.9067 26.1493 16.397C26.168 16.3233 26.2157 16.2643 26.278 16.2349C26.3279 16.2096 26.3881 16.2012 26.4463 16.2159C26.5792 16.2496 26.6581 16.3844 26.6249 16.5192C26.494 17.052 26.3216 17.5785 26.116 18.086C25.8959 18.6293 25.6321 19.16 25.331 19.6613C24.98 20.2467 24.575 20.8027 24.1243 21.3123C24.0329 21.4155 23.8771 21.424 23.7774 21.3313C23.6757 21.2386 23.6674 21.0807 23.7588 20.9796C24.1887 20.4931 24.575 19.9624 24.9114 19.4022C25.2001 18.9221 25.4514 18.4145 25.6633 17.8965V17.8944Z" fill="#2AB678"/>
<path d="M15.1615 22.9424C15.1844 22.9129 15.2134 22.8897 15.2446 22.8729C15.3277 22.8307 15.4294 22.8392 15.5063 22.9002C15.9279 23.2372 16.4014 23.4983 16.9123 23.6752C18.1149 24.0943 19.4067 24.0143 20.5448 23.4499H20.5469C20.5469 23.4499 20.5635 23.4394 20.5718 23.4373C20.5802 23.433 20.5885 23.4288 20.5968 23.4246C20.7172 23.3614 20.8668 23.4078 20.9291 23.532C20.9914 23.6542 20.9457 23.8058 20.8232 23.869C20.8024 23.8795 20.7795 23.89 20.7588 23.9006C20.1232 24.2144 19.4462 24.3934 18.7442 24.4313C18.0671 24.4692 17.3963 24.3744 16.7503 24.1491C16.1875 23.9532 15.6662 23.6647 15.1989 23.2941C15.093 23.2098 15.0743 23.0519 15.1574 22.9424H15.1615Z" fill="#2AB678"/>
<path d="M13.2724 18.2461C13.3035 18.0586 13.343 17.8691 13.3949 17.6859C13.4261 17.5743 13.4593 17.4647 13.4967 17.3573C13.5195 17.2921 13.5632 17.2436 13.6192 17.2162C13.6753 17.1889 13.7438 17.1804 13.8103 17.2036C13.9391 17.2499 14.0076 17.391 13.9619 17.5216C13.8726 17.7849 13.8041 18.0565 13.7584 18.3282C13.7563 18.345 13.7522 18.364 13.7501 18.3808C13.7085 18.6483 13.6898 18.9221 13.694 19.1916C13.6982 19.497 13.7314 19.8024 13.7937 20.1014C13.8602 20.4236 13.9598 20.7395 14.0907 21.0428C14.1218 21.1144 14.1551 21.186 14.1883 21.2555C14.315 21.5124 14.4645 21.7609 14.6328 21.9905C14.7138 22.1021 14.6909 22.2579 14.5808 22.3401C14.4708 22.4222 14.3171 22.399 14.2361 22.2874C14.0512 22.0347 13.8851 21.7609 13.7459 21.4766C13.7085 21.4008 13.6712 21.3208 13.6379 21.2428C13.4946 20.908 13.3825 20.5584 13.3098 20.2046C13.2412 19.874 13.2039 19.537 13.1997 19.2001C13.1955 18.8821 13.2184 18.562 13.2703 18.2461H13.2724Z" fill="#2AB678"/>
<path d="M16.8605 13.3813C16.8605 13.3813 16.8605 13.3855 16.8626 13.3876C16.8647 13.3939 16.8668 13.3981 16.8689 13.4044C16.8689 13.4066 16.8689 13.4087 16.8709 13.4129C16.8709 13.4192 16.8751 13.4234 16.8772 13.4297C16.8772 13.4318 16.8772 13.436 16.8792 13.4381C16.8792 13.4445 16.8834 13.4487 16.8855 13.455C16.8855 13.4571 16.8855 13.4613 16.8875 13.4634C16.8875 13.4697 16.8917 13.4739 16.8938 13.4803C16.8938 13.4824 16.8938 13.4866 16.8959 13.4887C16.8959 13.495 16.9 13.4992 16.9 13.5055C16.9 13.5097 16.9 13.5119 16.9021 13.5161C16.9021 13.5203 16.9042 13.5266 16.9062 13.5308C16.9062 13.535 16.9062 13.5371 16.9083 13.5413C16.9083 13.5455 16.9104 13.5519 16.9125 13.5561C16.9125 13.5603 16.9125 13.5624 16.9145 13.5666C16.9145 13.5708 16.9166 13.5771 16.9187 13.5813C16.9187 13.5856 16.9187 13.5877 16.9208 13.5919C16.9208 13.5961 16.9208 13.6003 16.9229 13.6066C16.9229 13.6108 16.9229 13.615 16.9229 13.6193C16.9229 13.6235 16.9229 13.6277 16.9249 13.6319C16.9249 13.6361 16.9249 13.6403 16.9249 13.6445C16.9249 13.6487 16.9249 13.653 16.9249 13.6572C16.9249 13.6614 16.9249 13.6656 16.9249 13.6698C16.9249 13.674 16.9249 13.6782 16.9249 13.6824C16.9249 13.6866 16.9249 13.6909 16.9249 13.6951C16.9249 13.6993 16.9249 13.7035 16.9249 13.7077C16.9249 13.7119 16.9249 13.7161 16.9249 13.7203C16.9249 13.7246 16.9249 13.7288 16.9249 13.733C16.9249 13.7372 16.9249 13.7414 16.9249 13.7456C16.9249 13.7498 16.9249 13.754 16.9249 13.7583C16.9249 13.7625 16.9249 13.7667 16.9249 13.773C16.9249 13.7772 16.9249 13.7814 16.9249 13.7835C16.9249 13.7877 16.9249 13.7941 16.9249 13.7983C16.9249 13.8025 16.9249 13.8067 16.9249 13.8088C16.9249 13.813 16.9249 13.8193 16.9249 13.8235C16.9249 13.8277 16.9249 13.8299 16.9249 13.8341C16.9249 13.8404 16.9249 13.8446 16.9249 13.8509C16.9249 13.8551 16.9249 13.8572 16.9249 13.8614C16.9249 13.8678 16.9249 13.872 16.9249 13.8783C16.9249 13.8804 16.9249 13.8846 16.9249 13.8867C16.9249 13.893 16.9249 13.8994 16.9249 13.9057C16.9249 13.9078 16.9249 13.9099 16.9249 13.912C16.9249 13.9183 16.9249 13.9246 16.9229 13.9309C16.9229 13.9309 16.9229 13.9352 16.9229 13.9373C16.9229 13.9436 16.9229 13.952 16.9208 13.9583C16.9208 13.9583 16.9208 13.9604 16.9208 13.9625C16.9208 13.9688 16.9187 13.9773 16.9166 13.9836C16.9166 13.9836 16.9166 13.9857 16.9166 13.9878C16.9166 13.9962 16.9145 14.0025 16.9125 14.011C16.9021 14.0699 16.8855 14.1268 16.8647 14.1837C16.8128 14.3226 16.7359 14.4469 16.6383 14.5522C16.5511 14.6449 16.4493 14.7228 16.333 14.7817C15.9488 14.9755 15.5957 15.2177 15.2779 15.5041C15.0744 15.6873 14.8854 15.8916 14.7172 16.1085C14.632 16.2159 14.4783 16.2349 14.3703 16.1506C14.3641 16.1443 14.3579 16.1401 14.3516 16.1338C14.3309 16.1127 14.3143 16.0896 14.3018 16.0643C14.2644 15.9843 14.2686 15.8874 14.3226 15.8095C14.3246 15.8052 14.3267 15.8031 14.3309 15.7989C14.5178 15.561 14.7255 15.3356 14.9498 15.1334C15.2987 14.8176 15.6913 14.5501 16.1129 14.3374C16.3891 14.1984 16.5137 13.8635 16.3953 13.5771C16.3912 13.5645 16.3849 13.5519 16.3787 13.5371C16.2354 13.2423 15.8802 13.1223 15.5895 13.2676C15.1409 13.4929 14.7213 13.7688 14.3413 14.0889C14.2374 14.1773 14.0817 14.1626 13.9944 14.0552C13.9072 13.9499 13.9217 13.7919 14.0277 13.7035C14.4368 13.3581 14.8896 13.0612 15.3714 12.819C15.9052 12.5494 16.5552 12.7727 16.8211 13.3139C16.8315 13.3371 16.8419 13.3602 16.8522 13.3834L16.8605 13.3813Z" fill="#2AB678"/>
<path d="M26.9771 18.1871C26.9273 18.3156 26.786 18.3787 26.6573 18.3303C26.5306 18.2798 26.4683 18.1366 26.516 18.006C26.7196 17.4753 26.8857 16.9256 27.0104 16.3697C27.1308 15.8305 27.216 15.2788 27.2596 14.7312C27.2679 14.6407 27.3219 14.5648 27.3967 14.5269C27.4361 14.508 27.4797 14.4974 27.5254 14.5017C27.6604 14.5122 27.7622 14.6343 27.7497 14.7712C27.704 15.344 27.6147 15.919 27.4901 16.4813C27.3593 17.0604 27.1869 17.6353 26.973 18.1871H26.9771Z" fill="#2AB678"/>
<path d="M26.1551 19.9203C25.7813 20.5689 25.3451 21.186 24.8571 21.7546C23.8331 22.9466 22.6036 23.9111 21.1996 24.6229L21.1311 24.6566C19.7375 25.3453 18.1528 25.4695 16.6678 25.0062C16.0365 24.8082 15.4466 24.5113 14.9108 24.1238C14.4933 23.8205 14.1153 23.4646 13.7851 23.0666C13.5047 22.7254 13.2596 22.3527 13.0561 21.9568C13.0374 21.9189 13.0187 21.8852 13.0021 21.8494C12.9419 21.7251 12.9917 21.5756 13.1143 21.5145C13.2368 21.4534 13.3843 21.504 13.4445 21.6282C13.4611 21.6598 13.4756 21.6914 13.4943 21.7272C13.6813 22.0916 13.9056 22.4348 14.1652 22.7465C14.4663 23.1129 14.8152 23.4394 15.1974 23.7174C15.6896 24.0733 16.2338 24.347 16.8132 24.5282C18.1777 24.9557 19.6357 24.8398 20.9151 24.208L20.9816 24.1744C22.3253 23.492 23.505 22.5675 24.4853 21.424C24.9526 20.8806 25.3701 20.2888 25.7294 19.6655C25.7979 19.5454 25.9495 19.5054 26.0658 19.5749C26.1842 19.6444 26.2237 19.7982 26.1551 19.9161V19.9203Z" fill="#2AB678"/>
<path d="M13.087 20.7058C13.1244 20.8385 13.0496 20.9775 12.9209 21.0154C12.79 21.0533 12.653 20.9775 12.6156 20.8469C12.5138 20.4931 12.4411 20.1267 12.4037 19.7602C12.3684 19.4149 12.3622 19.0632 12.383 18.7178C12.3892 18.6251 12.4432 18.5493 12.52 18.5093C12.5574 18.4904 12.601 18.4819 12.6446 18.484C12.7796 18.4925 12.8835 18.6125 12.8752 18.7494C12.8544 19.0674 12.8606 19.3896 12.8939 19.7055C12.9292 20.0424 12.9936 20.3794 13.0891 20.7037L13.087 20.7058Z" fill="#2AB678"/>
<path d="M12.8026 16.8203C12.8254 16.7614 12.869 16.715 12.9209 16.6898C12.9812 16.6603 13.0539 16.654 13.1224 16.6813C13.2491 16.7319 13.3114 16.8772 13.2595 17.0056C13.1535 17.2773 13.0663 17.5595 13.0019 17.8459C12.9708 17.9807 12.8399 18.0649 12.707 18.0334C12.5741 18.0018 12.491 17.8691 12.5222 17.7343C12.5928 17.4226 12.6862 17.1152 12.8026 16.8203Z" fill="#2AB678"/>
<path d="M15.0014 14.0215C15.2402 13.8551 15.4915 13.7056 15.7512 13.575C15.8737 13.514 16.0212 13.5645 16.0814 13.6888C16.1416 13.813 16.0918 13.9625 15.9692 14.0236C15.7304 14.1436 15.4978 14.2826 15.2797 14.4343C15.0596 14.588 14.8477 14.7586 14.6525 14.9439C14.4552 15.1292 14.2683 15.3335 14.0979 15.5462C13.9276 15.7631 13.7698 15.9948 13.6306 16.2349C13.5621 16.3549 13.4105 16.3949 13.2942 16.3233C13.1758 16.2538 13.1363 16.1001 13.207 15.9821C13.3586 15.7189 13.531 15.4662 13.7158 15.2324C13.9006 14.9987 14.1021 14.7796 14.3181 14.5754C14.532 14.3753 14.7605 14.1879 15.0014 14.0215Z" fill="#2AB678"/>
<path d="M15.9102 0.273775L19.9144 0L20.8864 4.1677L19.8043 5.54079H15.9102V0.273775Z" fill="url(#paint0_radial_368_2080)"/>
</g>
<defs>
<radialGradient id="paint0_radial_368_2080" cx="0" cy="0" r="1" gradientUnits="userSpaceOnUse" gradientTransform="translate(18.3983 2.76934) scale(2.61274 2.6493)">
<stop stop-color="#EEF7F0"/>
<stop offset="0.11" stop-color="white"/>
<stop offset="0.71" stop-color="#22B573"/>
</radialGradient>
<clipPath id="clip0_368_2080">
<rect width="37" height="38" fill="white"/>
</clipPath>
</defs>
</svg>
